<svg width="60" height="60" viewBox="0 0 60 60" fill="none" xmlns="http://www.w3.org/2000/svg">
<path d="M34.8125 6.25749C35.7926 6.25741 36.7557 6.51343 37.6064 7.00017C38.4571 7.48692 39.1659 8.1875 39.6625 9.03249L41.6975 12.5H46.875C47.942 12.5 48.9985 12.7102 49.9843 13.1185C50.9701 13.5268 51.8658 14.1253 52.6202 14.8798C53.3747 15.6342 53.9732 16.5299 54.3815 17.5157C54.7898 18.5015 55 19.558 55 20.625V44.375C55 45.442 54.7898 46.4985 54.3815 47.4843C53.9732 48.4701 53.3747 49.3658 52.6202 50.1203C51.8658 50.8747 50.9701 51.4732 49.9843 51.8815C48.9985 52.2899 47.942 52.5 46.875 52.5H13.125C10.9701 52.5 8.90349 51.644 7.37976 50.1203C5.85602 48.5965 5 46.5299 5 44.375V20.625C5 18.4701 5.85602 16.4035 7.37976 14.8798C8.90349 13.356 10.9701 12.5 13.125 12.5H18.325L20.5125 8.93999C21.0155 8.12054 21.7201 7.4437 22.5591 6.97408C23.3981 6.50446 24.3435 6.25775 25.305 6.25749H34.8125ZM34.8125 10.0075H25.305C25.0314 10.0077 24.7612 10.0678 24.5133 10.1836C24.2654 10.2993 24.0458 10.4679 23.87 10.6775L23.7075 10.9025L20.975 15.3525C20.8074 15.6258 20.5726 15.8516 20.2929 16.0083C20.0133 16.165 19.6981 16.2473 19.3775 16.2475H13.1275C12.5525 16.2472 11.9832 16.3602 11.4519 16.58C10.9207 16.7999 10.438 17.1224 10.0314 17.5289C9.62485 17.9355 9.30242 18.4182 9.08255 18.9494C8.86267 19.4807 8.74967 20.05 8.75 20.625V44.375C8.75 46.79 10.71 48.75 13.125 48.75H46.875C48.0353 48.75 49.1481 48.2891 49.9686 47.4686C50.789 46.6481 51.25 45.5353 51.25 44.375V20.625C51.25 19.4647 50.789 18.3519 49.9686 17.5314C49.1481 16.7109 48.0353 16.25 46.875 16.25H40.625C40.2981 16.2502 39.9769 16.1649 39.6932 16.0026C39.4095 15.8404 39.1731 15.6068 39.0075 15.325L36.4275 10.9325C36.2621 10.6511 36.0261 10.4177 35.7429 10.2555C35.4596 10.0932 35.1389 10.0078 34.8125 10.0075ZM30 20C32.9837 20 35.8452 21.1853 37.9549 23.2951C40.0647 25.4048 41.25 28.2663 41.25 31.25C41.25 34.2337 40.0647 37.0952 37.9549 39.205C35.8452 41.3147 32.9837 42.5 30 42.5C27.0163 42.5 24.1548 41.3147 22.045 39.205C19.9353 37.0952 18.75 34.2337 18.75 31.25C18.75 28.2663 19.9353 25.4048 22.045 23.2951C24.1548 21.1853 27.0163 20 30 20ZM30 23.75C29.0151 23.75 28.0398 23.944 27.1299 24.3209C26.2199 24.6978 25.3931 25.2503 24.6967 25.9467C24.0003 26.6431 23.4478 27.4699 23.0709 28.3799C22.694 29.2898 22.5 30.2651 22.5 31.25C22.5 32.2349 22.694 33.2102 23.0709 34.1201C23.4478 35.0301 24.0003 35.8569 24.6967 36.5533C25.3931 37.2498 26.2199 37.8022 27.1299 38.1791C28.0398 38.556 29.0151 38.75 30 38.75C31.9891 38.75 33.8968 37.9598 35.3033 36.5533C36.7098 35.1468 37.5 33.2391 37.5 31.25C37.5 29.2609 36.7098 27.3532 35.3033 25.9467C33.8968 24.5402 31.9891 23.75 30 23.75Z" fill="white"/>
</svg>
