<svg width="60" height="60" viewBox="0 0 60 60" fill="none" xmlns="http://www.w3.org/2000/svg">
<path d="M10.55 21.175C10.9016 20.8239 11.3781 20.6266 11.875 20.6266C12.3719 20.6266 12.8484 20.8239 13.2 21.175L30 37.975L46.8 21.175C46.9717 20.9908 47.1787 20.843 47.4087 20.7405C47.6387 20.6381 47.887 20.583 48.1387 20.5785C48.3905 20.5741 48.6405 20.6204 48.874 20.7147C49.1075 20.809 49.3196 20.9493 49.4976 21.1274C49.6757 21.3054 49.816 21.5175 49.9103 21.751C50.0046 21.9845 50.0509 22.2345 50.0465 22.4863C50.0421 22.7381 49.987 22.9863 49.8845 23.2163C49.782 23.4463 49.6342 23.6533 49.45 23.825L31.325 41.95C30.9734 42.3011 30.4969 42.4983 30 42.4983C29.5031 42.4983 29.0266 42.3011 28.675 41.95L10.55 23.825C10.1989 23.4734 10.0017 22.9969 10.0017 22.5C10.0017 22.0031 10.1989 21.5266 10.55 21.175Z" fill="white"/>
</svg>
