<svg width="60" height="60" viewBox="0 0 60 60" fill="none" xmlns="http://www.w3.org/2000/svg">
<path d="M21.175 10.55C20.8239 10.9016 20.6266 11.3781 20.6266 11.875C20.6266 12.3719 20.8239 12.8484 21.175 13.2L37.975 30L21.175 46.8C20.9908 46.9717 20.843 47.1787 20.7405 47.4087C20.6381 47.6387 20.583 47.887 20.5785 48.1387C20.5741 48.3905 20.6204 48.6405 20.7147 48.874C20.809 49.1075 20.9493 49.3196 21.1274 49.4976C21.3054 49.6757 21.5175 49.816 21.751 49.9103C21.9845 50.0046 22.2345 50.0509 22.4863 50.0465C22.7381 50.042 22.9863 49.9869 23.2163 49.8845C23.4463 49.782 23.6533 49.6342 23.825 49.45L41.95 31.325C42.3011 30.9734 42.4983 30.4969 42.4983 30C42.4983 29.5031 42.3011 29.0266 41.95 28.675L23.825 10.55C23.4734 10.1989 22.9969 10.0016 22.5 10.0016C22.0031 10.0016 21.5266 10.1989 21.175 10.55Z" fill="white"/>
</svg>
