<svg width="60" height="60" viewBox="0 0 60 60" fill="none" xmlns="http://www.w3.org/2000/svg">
<path d="M38.825 10.55C39.1761 10.9016 39.3734 11.3781 39.3734 11.875C39.3734 12.3719 39.1761 12.8484 38.825 13.2L22.025 30L38.825 46.8C39.0092 46.9717 39.157 47.1787 39.2595 47.4087C39.3619 47.6387 39.417 47.887 39.4215 48.1387C39.4259 48.3905 39.3796 48.6405 39.2853 48.874C39.191 49.1075 39.0506 49.3196 38.8726 49.4976C38.6946 49.6757 38.4825 49.816 38.249 49.9103C38.0155 50.0046 37.7655 50.0509 37.5137 50.0465C37.2619 50.042 37.0137 49.9869 36.7837 49.8845C36.5537 49.782 36.3467 49.6342 36.175 49.45L18.05 31.325C17.6989 30.9734 17.5016 30.4969 17.5016 30C17.5016 29.5031 17.6989 29.0266 18.05 28.675L36.175 10.55C36.5266 10.1989 37.0031 10.0016 37.5 10.0016C37.9969 10.0016 38.4734 10.1989 38.825 10.55Z" fill="white"/>
</svg>
