<svg width="60" height="60" viewBox="0 0 60 60" fill="none" xmlns="http://www.w3.org/2000/svg">
<path d="M10.55 38.825C10.9016 39.1761 11.3781 39.3734 11.875 39.3734C12.3719 39.3734 12.8484 39.1761 13.2 38.825L30 22.025L46.8 38.825C46.9717 39.0092 47.1787 39.157 47.4087 39.2595C47.6387 39.362 47.887 39.4171 48.1387 39.4215C48.3905 39.4259 48.6405 39.3796 48.874 39.2853C49.1075 39.191 49.3196 39.0507 49.4976 38.8726C49.6757 38.6946 49.816 38.4825 49.9103 38.249C50.0046 38.0155 50.0509 37.7655 50.0465 37.5137C50.042 37.262 49.9869 37.0137 49.8845 36.7837C49.782 36.5537 49.6342 36.3467 49.45 36.175L31.325 18.05C30.9734 17.6989 30.4969 17.5017 30 17.5017C29.5031 17.5017 29.0266 17.6989 28.675 18.05L10.55 36.175C10.1989 36.5266 10.0016 37.0031 10.0016 37.5C10.0016 37.9969 10.1989 38.4735 10.55 38.825Z" fill="white"/>
</svg>
