<svg width="60" height="60" viewBox="0 0 60 60" fill="none" xmlns="http://www.w3.org/2000/svg">
<path d="M27.665 20.01L28.125 19.9975H46.875C48.95 19.9973 50.9463 20.791 52.4548 22.2158C53.9632 23.6405 54.8694 25.5884 54.9875 27.66L55 28.1225V46.8725C55.0002 48.9479 54.2061 50.9446 52.7808 52.4531C51.3555 53.9616 49.407 54.8675 47.335 54.985L46.875 54.9975H28.125C26.0497 54.9977 24.0529 54.2036 22.5444 52.7783C21.0359 51.353 20.13 49.4045 20.0125 47.3325L20 46.875V28.125C19.9999 26.0497 20.7939 24.0529 22.2192 22.5444C23.6445 21.0359 25.593 20.13 27.665 20.0125V20.01ZM46.875 23.7475H28.125C27.027 23.7475 25.9692 24.1604 25.1615 24.9042C24.3538 25.648 23.8554 26.6683 23.765 27.7625L23.75 28.1225V46.8725C23.7501 47.9709 24.1633 49.029 24.9076 49.8368C25.6519 50.6445 26.6728 51.1428 27.7675 51.2325L28.125 51.2475H46.875C47.9734 51.2474 49.0315 50.8342 49.8393 50.0899C50.647 49.3456 51.1453 48.3247 51.235 47.23L51.25 46.8725V28.1225C51.25 26.9622 50.7891 25.8494 49.9686 25.0289C49.1481 24.2084 48.0353 23.7475 46.875 23.7475ZM37.5 27.5C37.9973 27.5 38.4742 27.6976 38.8258 28.0492C39.1775 28.4008 39.375 28.8777 39.375 29.375V35.62H45.625C46.1223 35.62 46.5992 35.8176 46.9508 36.1692C47.3025 36.5208 47.5 36.9977 47.5 37.495C47.5 37.9923 47.3025 38.4692 46.9508 38.8208C46.5992 39.1725 46.1223 39.37 45.625 39.37H39.375V45.625C39.375 46.1223 39.1775 46.5992 38.8258 46.9508C38.4742 47.3025 37.9973 47.5 37.5 47.5C37.0027 47.5 36.5258 47.3025 36.1742 46.9508C35.8226 46.5992 35.625 46.1223 35.625 45.625V39.37H29.375C28.8777 39.37 28.4008 39.1725 28.0492 38.8208C27.6976 38.4692 27.5 37.9923 27.5 37.495C27.5 36.9977 27.6976 36.5208 28.0492 36.1692C28.4008 35.8176 28.8777 35.62 29.375 35.62H35.625V29.375C35.625 28.8777 35.8226 28.4008 36.1742 28.0492C36.5258 27.6976 37.0027 27.5 37.5 27.5ZM38.955 10.5825L39.085 11.025L40.8175 17.495H36.935L35.465 11.995C35.3165 11.4397 35.06 10.9192 34.7102 10.4631C34.3604 10.007 33.9241 9.62428 33.4263 9.33685C32.9286 9.04942 32.379 8.8629 31.8091 8.78795C31.2392 8.71299 30.6602 8.75107 30.105 8.9L11.995 13.755C10.9378 14.0385 10.0253 14.708 9.43753 15.6313C8.84975 16.5546 8.62942 17.6647 8.82 18.7425L8.9 19.1125L13.755 37.2225C13.9827 38.0735 14.4621 38.8359 15.1303 39.41C15.7985 39.9841 16.6244 40.3431 17.5 40.44V44.205C15.8746 44.1081 14.3157 43.5254 13.0252 42.5323C11.7348 41.5392 10.7724 40.1815 10.2625 38.635L10.1325 38.195L5.28 20.0825C4.74251 18.0784 4.99209 15.9447 5.97757 14.1187C6.96305 12.2928 8.60975 10.9131 10.58 10.2625L11.025 10.1325L29.135 5.28C31.1391 4.74251 33.2728 4.99209 35.0988 5.97757C36.9247 6.96305 38.3044 8.61225 38.955 10.5825Z" fill="white"/>
</svg>
