<svg width="60" height="60" viewBox="0 0 60 60" fill="none" xmlns="http://www.w3.org/2000/svg">
<path d="M27.665 20.01L28.125 19.9975H46.875C48.9499 19.9973 50.9463 20.791 52.4548 22.2158C53.9632 23.6406 54.8694 25.5884 54.9875 27.66L55 28.1225V32.0225C53.8841 30.9516 52.6214 30.045 51.25 29.33V28.1225C51.25 26.9622 50.7891 25.8494 49.9686 25.0289C49.1481 24.2084 48.0353 23.7475 46.875 23.7475H28.125C27.027 23.7476 25.9692 24.1604 25.1615 24.9042C24.3538 25.648 23.8553 26.6683 23.765 27.7625L23.75 28.1225V46.8725C23.7501 47.9709 24.1633 49.029 24.9076 49.8368C25.6519 50.6445 26.6728 51.1428 27.7675 51.2325L28.125 51.2475H29.33C30.0475 52.6225 30.955 53.885 32.02 54.9975H28.125C26.0497 54.9977 24.0529 54.2036 22.5444 52.7783C21.0359 51.353 20.13 49.4045 20.0125 47.3325L20 46.875V28.125C19.9999 26.0497 20.7939 24.0529 22.2192 22.5444C23.6445 21.0359 25.593 20.13 27.665 20.0125V20.01Z" fill="white"/>
<path d="M38.955 10.5825L39.085 11.025L40.8175 17.495H36.935L35.465 11.995C35.3164 11.4397 35.0599 10.9192 34.7101 10.4631C34.3603 10.007 33.9241 9.62427 33.4263 9.33685C32.9285 9.04942 32.379 8.8629 31.8091 8.78794C31.2392 8.71299 30.6601 8.75106 30.105 8.9L11.995 13.755C10.9378 14.0385 10.0253 14.708 9.43753 15.6313C8.84975 16.5546 8.62941 17.6647 8.82 18.7425L8.9 19.1125L13.755 37.2225C13.9827 38.0735 14.462 38.8359 15.1303 39.41C15.7985 39.9841 16.6244 40.3431 17.5 40.44V44.205C15.8746 44.1081 14.3157 43.5254 13.0252 42.5323C11.7348 41.5391 10.7723 40.1814 10.2625 38.635L10.1325 38.195L5.28 20.0825C4.74251 18.0784 4.99209 15.9447 5.97757 14.1187C6.96305 12.2928 8.60975 10.9131 10.58 10.2625L11.025 10.1325L29.135 5.28C31.139 4.74251 33.2728 4.99209 35.0987 5.97757C36.9247 6.96305 38.3044 8.61225 38.955 10.5825ZM57.5 43.75C57.5 40.1033 56.0513 36.6059 53.4727 34.0273C50.8941 31.4486 47.3967 30 43.75 30C40.1033 30 36.6059 31.4486 34.0273 34.0273C31.4486 36.6059 30 40.1033 30 43.75C30 47.3967 31.4486 50.8941 34.0273 53.4727C36.6059 56.0513 40.1033 57.5 43.75 57.5C47.3967 57.5 50.8941 56.0513 53.4727 53.4727C56.0513 50.8941 57.5 47.3967 57.5 43.75ZM43.525 35.0175L43.75 35L43.975 35.02C44.2247 35.0656 44.4547 35.1862 44.6342 35.3657C44.8137 35.5453 44.9343 35.7752 44.98 36.025L45 36.25V42.5L51.2625 42.5025L51.4875 42.5225C51.7372 42.5681 51.9672 42.6887 52.1467 42.8682C52.3262 43.0478 52.4468 43.2777 52.4925 43.5275L52.5125 43.7525L52.4925 43.9775C52.4467 44.2276 52.3257 44.4578 52.1457 44.6373C51.9657 44.8169 51.7352 44.9373 51.485 44.9825L51.26 45.0025H45.0025V51.26L44.9825 51.485C44.9368 51.7347 44.8162 51.9647 44.6367 52.1442C44.4572 52.3237 44.2272 52.4443 43.9775 52.49L43.7525 52.51L43.5275 52.49C43.2777 52.4443 43.0478 52.3237 42.8682 52.1442C42.6887 51.9647 42.5681 51.7347 42.5225 51.485L42.5025 51.26V45H36.245L36.02 44.98C35.7702 44.9343 35.5403 44.8137 35.3607 44.6342C35.1812 44.4547 35.0606 44.2247 35.015 43.975L34.995 43.75L35.015 43.525C35.0606 43.2752 35.1812 43.0453 35.3607 42.8657C35.5403 42.6862 35.7702 42.5656 36.02 42.52L36.245 42.5H42.5V36.25L42.52 36.025C42.5651 35.7748 42.6855 35.5443 42.8651 35.3643C43.0447 35.1842 43.2749 35.0633 43.525 35.0175Z" fill="white"/>
</svg>
