<svg width="60" height="60" viewBox="0 0 60 60" fill="none" xmlns="http://www.w3.org/2000/svg">
<path d="M9.5975 14.645C16.9475 4.855 32.1725 2.0075 43.0075 8.745C53.7075 15.395 57.6425 28.1875 53.2575 40.1875C49.12 51.52 38.2175 56.0075 30.36 50.3075C27.4175 48.1725 26.275 45.495 25.725 41.1475L25.46 38.68L25.3475 37.685C25.04 35.35 24.57 34.305 23.585 33.755C22.2475 33.01 21.355 32.9925 19.5975 33.6725L18.72 34.0375L18.2725 34.2325C15.7375 35.3325 14.0525 35.72 11.92 35.2725L11.42 35.155L11.01 35.0375C4.0375 32.8775 3.005 23.42 9.5975 14.645ZM12.0575 31.435L12.365 31.5275L12.7 31.6025C13.7975 31.82 14.735 31.64 16.2925 30.9975L17.7975 30.355C20.8025 29.1225 22.76 29.005 25.4125 30.48C27.705 31.76 28.6 33.725 29.055 37.13L29.1875 38.2775L29.325 39.6075L29.4425 40.6625C29.8725 44.065 30.655 45.8875 32.5625 47.2725C38.25 51.3975 46.3975 48.045 49.7375 38.9C53.5275 28.52 50.1725 17.615 41.0275 11.9275C31.84 6.2175 18.78 8.6625 12.595 16.895C7.4075 23.8025 8.045 30.095 12.0575 31.435ZM40.12 26.45C40.0019 26.05 39.965 25.6305 40.0116 25.2161C40.0582 24.8016 40.1872 24.4007 40.3911 24.0369C40.595 23.6732 40.8697 23.3539 41.1989 23.0979C41.5281 22.8419 41.9052 22.6544 42.3081 22.5465C42.7109 22.4385 43.1312 22.4123 43.5443 22.4693C43.9574 22.5263 44.355 22.6654 44.7135 22.8785C45.072 23.0915 45.3842 23.3741 45.6318 23.7097C45.8794 24.0453 46.0573 24.4271 46.155 24.8325C46.3461 25.6249 46.2199 26.4606 45.8035 27.1613C45.3871 27.8621 44.7134 28.3724 43.9261 28.5834C43.1387 28.7944 42.3001 28.6895 41.5891 28.2909C40.878 27.8923 40.3509 27.2317 40.12 26.45ZM41.355 35.17C41.1405 34.3694 41.2529 33.5163 41.6673 32.7985C42.0818 32.0807 42.7644 31.557 43.565 31.3425C44.3656 31.128 45.2187 31.2403 45.9365 31.6548C46.6543 32.0692 47.178 32.7519 47.3925 33.5525C47.4987 33.9489 47.5258 34.3624 47.4722 34.7693C47.4186 35.1762 47.2854 35.5685 47.0802 35.9239C46.875 36.2794 46.6018 36.5909 46.2762 36.8407C45.9506 37.0905 45.5789 37.2738 45.1825 37.38C44.7861 37.4862 44.3726 37.5133 43.9657 37.4597C43.5588 37.4061 43.1665 37.2729 42.8111 37.0677C42.4556 36.8625 42.1441 36.5893 41.8943 36.2637C41.6445 35.938 41.4612 35.5664 41.355 35.17ZM35.175 18.9425C34.9605 18.1419 35.0729 17.2888 35.4873 16.571C35.9018 15.8532 36.5844 15.3295 37.385 15.115C38.1856 14.9005 39.0387 15.0128 39.7565 15.4273C40.4743 15.8417 40.998 16.5244 41.2125 17.325C41.3187 17.7214 41.3458 18.1349 41.2922 18.5418C41.2386 18.9487 41.1054 19.341 40.9002 19.6965C40.695 20.0519 40.4218 20.3634 40.0962 20.6132C39.7706 20.863 39.3989 21.0463 39.0025 21.1525C38.2019 21.367 37.3489 21.2547 36.6311 20.8402C36.2756 20.635 35.9641 20.3618 35.7143 20.0362C35.4645 19.7105 35.2812 19.3389 35.175 18.9425ZM35.105 41.4375C34.9869 41.0375 34.95 40.618 34.9966 40.2036C35.0432 39.7891 35.1722 39.3882 35.3761 39.0244C35.58 38.6607 35.8547 38.3414 36.1839 38.0854C36.5131 37.8294 36.8902 37.6419 37.2931 37.534C37.6959 37.426 38.1162 37.3998 38.5293 37.4568C38.9424 37.5138 39.34 37.6529 39.6985 37.866C40.057 38.079 40.3692 38.3616 40.6168 38.6972C40.8644 39.0328 41.0423 39.4146 41.14 39.82C41.3311 40.6124 41.2049 41.4481 40.7885 42.1488C40.3721 42.8496 39.6984 43.3599 38.9111 43.5709C38.1237 43.7819 37.2851 43.677 36.5741 43.2784C35.863 42.8798 35.3359 42.2192 35.105 41.4375ZM26.3625 16.5125C26.2525 16.1148 26.2223 15.6993 26.2737 15.2898C26.3251 14.8804 26.4571 14.4852 26.662 14.1271C26.8669 13.7689 27.1408 13.4549 27.4677 13.2032C27.7946 12.9514 28.1682 12.7669 28.5668 12.6603C28.9654 12.5536 29.3812 12.527 29.7902 12.5819C30.1992 12.6368 30.5932 12.7722 30.9496 12.9802C31.3059 13.1882 31.6176 13.4647 31.8665 13.7938C32.1155 14.1229 32.2968 14.498 32.4 14.8975C32.6062 15.6955 32.4887 16.5426 32.0733 17.2544C31.6578 17.9661 30.978 18.485 30.1819 18.698C29.3857 18.911 28.5376 18.8008 27.8223 18.3915C27.107 17.9821 26.5823 17.3068 26.3625 16.5125Z" fill="white"/>
</svg>
