<svg width="60" height="60" viewBox="0 0 60 60" fill="none" xmlns="http://www.w3.org/2000/svg">
<path d="M10.9925 11.385L11.175 11.175C11.4925 10.8574 11.9134 10.6644 12.3611 10.6309C12.8089 10.5974 13.2538 10.7257 13.615 10.9925L13.825 11.175L30 27.3475L46.175 11.1725C46.348 10.9935 46.555 10.8508 46.7838 10.7526C47.0126 10.6544 47.2587 10.6028 47.5076 10.6008C47.7566 10.5987 48.0035 10.6463 48.2339 10.7407C48.4642 10.8351 48.6735 10.9744 48.8495 11.1505C49.0254 11.3267 49.1646 11.5361 49.2587 11.7665C49.3529 11.997 49.4002 12.2439 49.398 12.4929C49.3957 12.7419 49.3438 12.9879 49.2455 13.2166C49.1471 13.4453 49.0042 13.6521 48.825 13.825L32.6525 30L48.8275 46.175C49.1447 46.4928 49.3373 46.9138 49.3703 47.3616C49.4033 47.8093 49.2746 48.2541 49.0075 48.615L48.825 48.825C48.5075 49.1425 48.0866 49.3356 47.6389 49.3691C47.1911 49.4026 46.7462 49.2743 46.385 49.0075L46.175 48.825L30 32.6525L13.825 48.8275C13.4712 49.1689 12.9975 49.3576 12.5059 49.3531C12.0142 49.3486 11.5441 49.1512 11.1966 48.8034C10.8491 48.4556 10.6521 47.9852 10.6481 47.4936C10.6441 47.002 10.8333 46.5284 11.175 46.175L27.3475 30L11.1725 13.825C10.8553 13.5072 10.6627 13.0862 10.6297 12.6384C10.5967 12.1906 10.7254 11.7459 10.9925 11.385Z" fill="white"/>
</svg>
