<svg width="60" height="60" viewBox="0 0 60 60" fill="none" xmlns="http://www.w3.org/2000/svg">
<path d="M30 4.9975C43.81 4.9975 55.005 16.1925 55.005 30.0025C55.005 43.81 43.81 55.005 30 55.005C16.19 55.005 4.995 43.81 4.995 30.0025C4.995 16.1925 16.19 4.9975 30 4.9975ZM37.3475 41.25H22.65C24.28 47.285 27.115 51.255 29.9975 51.255C32.88 51.255 35.715 47.285 37.345 41.25H37.3475ZM18.7725 41.25H11.9625C14.3762 45.1123 17.9629 48.1006 22.1975 49.7775C20.8925 47.7275 19.815 45.1625 19.0225 42.24L18.7675 41.2525L18.7725 41.25ZM48.035 41.25H41.23C40.42 44.5875 39.25 47.5 37.7975 49.7775C41.7646 48.2083 45.1697 45.4851 47.5725 41.96L48.035 41.25ZM17.735 25H9.33749L9.32499 25.0425C8.93712 26.6673 8.74161 28.332 8.74249 30.0025C8.74249 32.6425 9.22499 35.17 10.105 37.5025H18.0375C17.4337 33.3633 17.3305 29.1664 17.73 25.0025L17.735 25ZM38.4925 25H21.5075C21.0677 29.1633 21.1811 33.3665 21.845 37.5H38.155C38.8186 33.3665 38.9321 29.1633 38.4925 25ZM50.6625 25H42.2675C42.4225 26.6175 42.505 28.2925 42.505 30C42.509 32.51 42.3269 35.0169 41.96 37.5H49.8925C50.7951 35.1027 51.2559 32.5616 51.2525 30C51.2525 28.2775 51.0475 26.6 50.6625 25ZM22.2 10.225L22.1425 10.245C17.026 12.288 12.8987 16.2318 10.625 21.25H18.245C19.03 16.87 20.3925 13.055 22.2 10.225ZM30 8.7475L29.71 8.76C26.55 9.05 23.49 14.055 22.075 21.25H37.93C36.515 14.075 33.4725 9.0775 30.3175 8.7625L30 8.7475ZM37.8 10.2225L38.0675 10.66C39.74 13.44 41.01 17.09 41.755 21.2525H49.375C47.2046 16.4627 43.3416 12.6433 38.5275 10.5275L37.8 10.2225Z" fill="white"/>
</svg>
