<svg width="60" height="60" viewBox="0 0 60 60" fill="none" xmlns="http://www.w3.org/2000/svg">
<path d="M30 7.50001C34.5373 7.50013 38.9685 8.87204 42.7122 11.4357C46.4558 13.9993 49.3369 17.6349 50.9773 21.8652C52.6178 26.0956 52.9409 30.7231 51.9043 35.1404C50.8677 39.5577 48.5198 43.5584 45.1688 46.6174C41.8178 49.6764 37.6202 51.6509 33.1269 52.2816C28.6337 52.9123 24.0548 52.1698 19.9911 50.1515C15.9273 48.1333 12.5688 44.9336 10.3561 40.9724C8.14346 37.0111 7.18011 32.4735 7.5925 27.955C7.61466 27.7098 7.68491 27.4713 7.79923 27.2532C7.91356 27.0351 8.06972 26.8416 8.2588 26.6839C8.44789 26.5262 8.66619 26.4072 8.90125 26.3338C9.1363 26.2605 9.38351 26.2341 9.62875 26.2563C9.874 26.2784 10.1125 26.3487 10.3306 26.463C10.5487 26.5773 10.7421 26.7335 10.8998 26.9226C11.0576 27.1116 11.1765 27.3299 11.2499 27.565C11.3233 27.8001 11.3497 28.0473 11.3275 28.2925C11.0703 31.0319 11.4224 33.7943 12.3586 36.3816C13.2948 38.9689 14.7919 41.317 16.7425 43.2575C18.4801 45.0031 20.5464 46.3872 22.8218 47.3299C25.0973 48.2726 27.537 48.7553 30 48.75C33.1962 48.7494 36.3391 47.9317 39.1304 46.3747C41.9216 44.8177 44.2686 42.5729 45.9482 39.8537C47.6279 37.1345 48.5846 34.0311 48.7275 30.8381C48.8704 27.6451 48.1946 24.4686 46.7645 21.6103C45.3344 18.7519 43.1973 16.3066 40.5563 14.5065C37.9152 12.7064 34.8578 11.6113 31.6745 11.3253C28.4912 11.0392 25.2875 11.5716 22.3678 12.872C19.4482 14.1723 16.9093 16.1974 14.9925 18.755H21.8825C22.3576 18.7552 22.8149 18.9356 23.162 19.2599C23.5091 19.5843 23.7202 20.0283 23.7526 20.5022C23.7849 20.9762 23.6362 21.4447 23.3364 21.8133C23.0366 22.1818 22.6081 22.4228 22.1375 22.4875L21.8825 22.505H10.625C10.1719 22.505 9.73415 22.3409 9.39268 22.0431C9.0512 21.7453 8.82912 21.3339 8.7675 20.885L8.75 20.63V9.38001C8.75015 8.90495 8.93061 8.44766 9.25493 8.10053C9.57925 7.7534 10.0232 7.54232 10.4972 7.50994C10.9712 7.47756 11.4397 7.6263 11.8082 7.92609C12.1768 8.22588 12.4177 8.65438 12.4825 9.12501L12.5 9.38001L12.4975 15.8575C14.6053 13.2454 17.2715 11.1389 20.3003 9.69258C23.3292 8.2463 26.6436 7.49709 30 7.50001ZM28.125 17.5C28.5781 17.5 29.0159 17.6641 29.3573 17.9619C29.6988 18.2597 29.9209 18.6711 29.9825 19.12L30 19.375V30H35.625C36.1001 30.0001 36.5573 30.1806 36.9045 30.5049C37.2516 30.8293 37.4627 31.2732 37.4951 31.7472C37.5274 32.2212 37.3787 32.6897 37.0789 33.0582C36.7791 33.4268 36.3506 33.6677 35.88 33.7325L35.625 33.75H28.125C27.6719 33.75 27.2341 33.5859 26.8927 33.2881C26.5512 32.9903 26.3291 32.5789 26.2675 32.13L26.25 31.875V19.375C26.25 18.8777 26.4475 18.4008 26.7992 18.0492C27.1508 17.6975 27.6277 17.5 28.125 17.5Z" fill="white"/>
</svg>
