<svg width="60" height="60" viewBox="0 0 60 60" fill="none" xmlns="http://www.w3.org/2000/svg">
<path d="M44.375 7.5C46.5299 7.5 48.5965 8.35602 50.1202 9.87976C51.644 11.4035 52.5 13.4701 52.5 15.625V44.375C52.5 46.5299 51.644 48.5965 50.1202 50.1202C48.5965 51.644 46.5299 52.5 44.375 52.5H15.625C13.4701 52.5 11.4035 51.644 9.87976 50.1202C8.35602 48.5965 7.5 46.5299 7.5 44.375V15.625C7.5 13.4701 8.35602 11.4035 9.87976 9.87976C11.4035 8.35602 13.4701 7.5 15.625 7.5H44.375ZM45.825 48.5025L31.3125 34.2875C30.9959 33.9772 30.5796 33.7891 30.1375 33.7566C29.6954 33.7241 29.2561 33.8493 28.8975 34.11L28.6875 34.285L14.17 48.5025C14.625 48.6625 15.115 48.75 15.625 48.75H44.375C44.8825 48.75 45.3725 48.6625 45.825 48.5025ZM44.375 11.25H15.625C14.4647 11.25 13.3519 11.7109 12.5314 12.5314C11.7109 13.3519 11.25 14.4647 11.25 15.625V44.375C11.25 44.895 11.34 45.395 11.5075 45.86L26.065 31.6075C27.0629 30.6306 28.3886 30.0598 29.7841 30.0062C31.1795 29.9526 32.5451 30.42 33.615 31.3175L33.935 31.6075L48.49 45.8625C48.6575 45.3975 48.75 44.8975 48.75 44.375V15.625C48.75 14.4647 48.2891 13.3519 47.4686 12.5314C46.6481 11.7109 45.5353 11.25 44.375 11.25ZM38.13 16.25C39.6232 16.25 41.0552 16.8432 42.111 17.899C43.1668 18.9548 43.76 20.3868 43.76 21.88C43.76 23.3732 43.1668 24.8052 42.111 25.861C41.0552 26.9168 39.6232 27.51 38.13 27.51C36.6368 27.51 35.2048 26.9168 34.149 25.861C33.0932 24.8052 32.5 23.3732 32.5 21.88C32.5 20.3868 33.0932 18.9548 34.149 17.899C35.2048 16.8432 36.6368 16.25 38.13 16.25ZM38.13 20C37.6314 20 37.1532 20.1981 36.8006 20.5506C36.4481 20.9032 36.25 21.3814 36.25 21.88C36.25 22.3786 36.4481 22.8568 36.8006 23.2094C37.1532 23.5619 37.6314 23.76 38.13 23.76C38.6286 23.76 39.1068 23.5619 39.4594 23.2094C39.8119 22.8568 40.01 22.3786 40.01 21.88C40.01 21.3814 39.8119 20.9032 39.4594 20.5506C39.1068 20.1981 38.6286 20 38.13 20Z" fill="white"/>
</svg>
