<svg width="60" height="60" viewBox="0 0 60 60" fill="none" xmlns="http://www.w3.org/2000/svg">
<path d="M46.875 10C47.942 10 48.9985 10.2102 49.9843 10.6185C50.9701 11.0268 51.8658 11.6253 52.6202 12.3798C53.3747 13.1342 53.9732 14.0299 54.3815 15.0157C54.7898 16.0015 55 17.058 55 18.125V46.875C55 47.942 54.7898 48.9985 54.3815 49.9843C53.9732 50.9701 53.3747 51.8658 52.6202 52.6202C51.8658 53.3747 50.9701 53.9732 49.9843 54.3815C48.9985 54.7898 47.942 55 46.875 55H18.125C17.058 55 16.0015 54.7898 15.0157 54.3815C14.0299 53.9732 13.1342 53.3747 12.3798 52.6202C11.6253 51.8658 11.0268 50.9701 10.6185 49.9843C10.2102 48.9985 10 47.942 10 46.875V31.255C11.185 31.75 12.4425 32.105 13.75 32.31V46.875C13.75 47.395 13.84 47.895 14.0075 48.36L28.565 34.1075C29.5629 33.1306 30.8886 32.5598 32.2841 32.5062C33.6795 32.4526 35.0451 32.92 36.115 33.8175L36.435 34.1075L50.99 48.3625C51.1575 47.8975 51.25 47.3975 51.25 46.875V18.125C51.25 16.9647 50.7891 15.8519 49.9686 15.0314C49.1481 14.2109 48.0353 13.75 46.875 13.75H32.31C32.111 12.462 31.7568 11.2028 31.255 10H46.875ZM31.3975 36.61L31.1875 36.785L16.67 51.0025C17.125 51.1625 17.615 51.25 18.125 51.25H46.875C47.3825 51.25 47.8725 51.1625 48.325 51.0025L33.8125 36.7875C33.4959 36.4772 33.0796 36.2891 32.6375 36.2566C32.1954 36.2241 31.7561 36.3493 31.3975 36.61ZM40.63 18.75C42.1232 18.75 43.5552 19.3432 44.611 20.399C45.6668 21.4548 46.26 22.8868 46.26 24.38C46.26 25.8732 45.6668 27.3052 44.611 28.361C43.5552 29.4168 42.1232 30.01 40.63 30.01C39.1368 30.01 37.7048 29.4168 36.649 28.361C35.5932 27.3052 35 25.8732 35 24.38C35 22.8868 35.5932 21.4548 36.649 20.399C37.7048 19.3432 39.1368 18.75 40.63 18.75ZM16.25 2.5C18.0557 2.5 19.8437 2.85565 21.5119 3.54666C23.1801 4.23766 24.6959 5.25048 25.9727 6.52728C27.2495 7.80409 28.2623 9.31988 28.9533 10.9881C29.6443 12.6563 30 14.4443 30 16.25C30 18.0557 29.6443 19.8437 28.9533 21.5119C28.2623 23.1801 27.2495 24.6959 25.9727 25.9727C24.6959 27.2495 23.1801 28.2623 21.5119 28.9533C19.8437 29.6443 18.0557 30 16.25 30C12.6033 30 9.10591 28.5513 6.52728 25.9727C3.94866 23.3941 2.5 19.8967 2.5 16.25C2.5 12.6033 3.94866 9.10591 6.52728 6.52728C9.10591 3.94866 12.6033 2.5 16.25 2.5ZM40.63 22.5C40.3831 22.5 40.1386 22.5486 39.9106 22.6431C39.6825 22.7376 39.4752 22.8761 39.3006 23.0506C39.1261 23.2252 38.9876 23.4325 38.8931 23.6606C38.7986 23.8886 38.75 24.1331 38.75 24.38C38.75 24.6269 38.7986 24.8714 38.8931 25.0994C38.9876 25.3275 39.1261 25.5348 39.3006 25.7094C39.4752 25.8839 39.6825 26.0224 39.9106 26.1169C40.1386 26.2114 40.3831 26.26 40.63 26.26C41.1286 26.26 41.6068 26.0619 41.9594 25.7094C42.3119 25.3568 42.51 24.8786 42.51 24.38C42.51 23.8814 42.3119 23.4032 41.9594 23.0506C41.6068 22.6981 41.1286 22.5 40.63 22.5ZM16.25 7.5L16.025 7.5175C15.7752 7.56313 15.5453 7.68373 15.3658 7.86326C15.1862 8.04279 15.0656 8.27274 15.02 8.5225L15 8.75V15H8.745L8.52 15.02C8.27024 15.0656 8.04029 15.1862 7.86076 15.3658C7.68123 15.5453 7.56063 15.7752 7.515 16.025L7.495 16.25L7.515 16.475C7.56063 16.7248 7.68123 16.9547 7.86076 17.1342C8.04029 17.3138 8.27024 17.4344 8.52 17.48L8.745 17.5H15V23.7575L15.02 23.9825C15.0656 24.2323 15.1862 24.4622 15.3658 24.6417C15.5453 24.8213 15.7752 24.9419 16.025 24.9875L16.25 25.01L16.475 24.9875C16.7248 24.9419 16.9547 24.8213 17.1342 24.6417C17.3138 24.4622 17.4344 24.2323 17.48 23.9825L17.5 23.7575V17.5H23.7625L23.9875 17.48C24.2373 17.4344 24.4672 17.3138 24.6467 17.1342C24.8263 16.9547 24.9469 16.7248 24.9925 16.475L25.0125 16.25L24.9925 16.025C24.9467 15.7749 24.8257 15.5447 24.6457 15.3651C24.4657 15.1856 24.2352 15.0652 23.985 15.02L23.76 15H17.5V8.75L17.48 8.525C17.4348 8.27478 17.3144 8.04429 17.1349 7.86428C16.9553 7.68426 16.7251 7.56329 16.475 7.5175L16.25 7.5Z" fill="white"/>
</svg>
