<svg width="60" height="60" viewBox="0 0 60 60" fill="none" xmlns="http://www.w3.org/2000/svg">
<path d="M30 5.0025C34.8071 5.0025 39.4172 6.91209 42.8163 10.3112C46.2154 13.7103 48.125 18.3204 48.125 23.1275C48.125 28.3675 45.875 33.1775 41.4675 37.4825C41.2761 37.6696 41.1269 37.8955 41.03 38.145L40.95 38.4025L38.125 50.64C37.8554 51.8072 37.2201 52.8579 36.3118 53.639C35.4035 54.4201 34.2695 54.8908 33.075 54.9825L32.6425 55H27.3575C26.1596 55 24.993 54.6176 24.0276 53.9085C23.0622 53.1993 22.3483 52.2005 21.99 51.0575L21.8775 50.64L19.0525 38.4025C18.9724 38.0529 18.7936 37.7336 18.5375 37.4825C14.3375 33.3825 12.095 28.825 11.89 23.8725L11.875 23.1275L11.885 22.5275C12.0413 17.8274 14.0184 13.372 17.3985 10.1024C20.7787 6.83282 25.2973 5.005 30 5.005V5.0025ZM35.2875 46.2475H24.71L25.5325 49.7975C25.6183 50.1667 25.8141 50.5013 26.0939 50.757C26.3738 51.0127 26.7245 51.1777 27.1 51.23L27.3575 51.25H32.6425C33.0222 51.2495 33.3927 51.1339 33.7052 50.9183C34.0177 50.7026 34.2574 50.3973 34.3925 50.0425L34.4675 49.795L35.2875 46.2475ZM30 8.7525C26.2827 8.75236 22.7098 10.1923 20.0314 12.77C17.3529 15.3478 15.7772 18.8629 15.635 22.5775L15.625 23.1275L15.6425 23.82C15.8325 27.7275 17.6425 31.37 21.1575 34.8C21.8175 35.445 22.3075 36.24 22.585 37.115L22.7075 37.56L23.845 42.4975H36.1525L37.2975 37.5575C37.5038 36.6605 37.927 35.8278 38.53 35.1325L38.8475 34.8C42.3575 31.3675 44.1675 27.73 44.3575 23.82L44.375 23.1275L44.365 22.5775C44.2234 18.8624 42.648 15.3467 39.9695 12.7684C37.291 10.1902 33.7178 8.75239 30 8.7525Z" fill="white"/>
</svg>
