<svg width="60" height="60" viewBox="0 0 60 60" fill="none" xmlns="http://www.w3.org/2000/svg">
<path d="M28.125 16.875C28.125 16.3777 28.3225 15.9008 28.6742 15.5492C29.0258 15.1975 29.5027 15 30 15C30.4973 15 30.9742 15.1975 31.3258 15.5492C31.6775 15.9008 31.875 16.3777 31.875 16.875V20.625C31.875 21.1223 31.6775 21.5992 31.3258 21.9508C30.9742 22.3025 30.4973 22.5 30 22.5C29.5027 22.5 29.0258 22.3025 28.6742 21.9508C28.3225 21.5992 28.125 21.1223 28.125 20.625V16.875ZM40.7 20.54C40.3484 20.1889 39.8719 19.9916 39.375 19.9916C38.8781 19.9916 38.4016 20.1889 38.05 20.54L35.3975 23.19C35.2183 23.3629 35.0754 23.5697 34.977 23.7984C34.8787 24.0271 34.8268 24.2731 34.8245 24.5221C34.8223 24.7711 34.8696 25.018 34.9638 25.2485C35.0579 25.4789 35.197 25.6883 35.373 25.8645C35.549 26.0406 35.7583 26.1799 35.9886 26.2743C36.219 26.3687 36.4659 26.4163 36.7149 26.4142C36.9638 26.4122 37.2099 26.3606 37.4387 26.2624C37.6675 26.1642 37.8745 26.0215 38.0475 25.8425L40.7 23.1925C41.0511 22.8409 41.2484 22.3644 41.2484 21.8675C41.2484 21.3706 41.0511 20.8941 40.7 20.5425V20.54ZM21.95 20.54C21.5946 20.2088 21.1244 20.0285 20.6387 20.0371C20.1529 20.0456 19.6895 20.2424 19.3459 20.5859C19.0024 20.9295 18.8056 21.3929 18.7971 21.8787C18.7885 22.3644 18.9688 22.8346 19.3 23.19L21.95 25.8425C22.1229 26.0217 22.3297 26.1646 22.5584 26.263C22.7871 26.3613 23.0331 26.4132 23.2821 26.4155C23.5311 26.4177 23.778 26.3704 24.0085 26.2762C24.2389 26.1821 24.4483 26.043 24.6245 25.867C24.8006 25.691 24.9399 25.4817 25.0343 25.2514C25.1287 25.021 25.1763 24.7741 25.1742 24.5251C25.1722 24.2762 25.1206 24.0301 25.0224 23.8013C24.9242 23.5725 24.7815 23.3655 24.6025 23.1925L21.9525 20.5425L21.95 20.54Z" fill="white"/>
<path d="M30 5.0025C34.8071 5.0025 39.4172 6.91209 42.8163 10.3112C46.2154 13.7103 48.125 18.3204 48.125 23.1275C48.125 28.3675 45.875 33.1775 41.4675 37.4825C41.2761 37.6696 41.1269 37.8955 41.03 38.145L40.95 38.4025L38.125 50.64C37.8554 51.8072 37.2201 52.8579 36.3118 53.639C35.4035 54.4201 34.2695 54.8908 33.075 54.9825L32.6425 55H27.3575C26.1596 55 24.993 54.6176 24.0276 53.9085C23.0622 53.1993 22.3483 52.2005 21.99 51.0575L21.8775 50.64L19.0525 38.4025C18.9724 38.0529 18.7936 37.7336 18.5375 37.4825C14.3375 33.3825 12.095 28.825 11.89 23.8725L11.875 23.1275L11.885 22.5275C12.0413 17.8274 14.0183 13.372 17.3985 10.1024C20.7787 6.83282 25.2973 5.005 30 5.005V5.0025ZM35.2875 46.2475H24.71L25.5325 49.7975C25.6183 50.1667 25.8141 50.5013 26.0939 50.757C26.3738 51.0127 26.7245 51.1777 27.1 51.23L27.3575 51.25H32.6425C33.0222 51.2495 33.3927 51.1339 33.7052 50.9183C34.0177 50.7026 34.2574 50.3973 34.3925 50.0425L34.4675 49.795L35.2875 46.2475ZM30 8.7525C26.2827 8.75236 22.7098 10.1923 20.0314 12.77C17.3529 15.3478 15.7772 18.8629 15.635 22.5775L15.625 23.1275L15.6425 23.82C15.8325 27.7275 17.6425 31.37 21.1575 34.8C21.8175 35.445 22.3075 36.24 22.585 37.115L22.7075 37.56L23.845 42.4975H28.125V26.875C28.125 26.3777 28.3226 25.9008 28.6742 25.5492C29.0258 25.1975 29.5027 25 30 25C30.4973 25 30.9742 25.1975 31.3258 25.5492C31.6775 25.9008 31.875 26.3777 31.875 26.875V42.5H36.1525L37.2975 37.56C37.5038 36.663 37.927 35.8303 38.53 35.135L38.8475 34.8025C42.3575 31.37 44.1675 27.7325 44.3575 23.8225L44.375 23.13L44.365 22.58C44.224 18.8645 42.6489 15.3481 39.9703 12.7693C37.2918 10.1905 33.7182 8.75241 30 8.7525Z" fill="white"/>
</svg>
