<svg width="60" height="60" viewBox="0 0 60 60" fill="none" xmlns="http://www.w3.org/2000/svg">
<path d="M30 5C43.8075 5 55 16.1925 55 30C55 43.8075 43.8075 55 30 55C16.1925 55 5 43.8075 5 30C5 16.1925 16.1925 5 30 5ZM30 8.75C24.3641 8.75 18.9591 10.9888 14.974 14.974C10.9888 18.9591 8.75 24.3641 8.75 30C8.75 35.6358 10.9888 41.0409 14.974 45.026C18.9591 49.0112 24.3641 51.25 30 51.25C35.6358 51.25 41.0409 49.0112 45.026 45.026C49.0112 41.0409 51.25 35.6358 51.25 30C51.25 24.3641 49.0112 18.9591 45.026 14.974C41.0409 10.9888 35.6358 8.75 30 8.75ZM30 13.005C32.5938 13.0051 35.1234 13.812 37.2381 15.314C39.3527 16.816 40.9478 18.9386 41.8022 21.3877C42.6565 23.8368 42.7279 26.491 42.0063 28.9824C41.2847 31.4738 39.8059 33.6791 37.775 35.2925L37.855 35.2225L35.9425 43.64C35.7497 44.4632 35.3204 45.2121 34.7074 45.7944C34.0944 46.3768 33.3245 46.7671 32.4925 46.9175L32.1175 46.975L31.7275 46.995H28.2725C26.4375 46.995 24.8075 45.8375 24.1625 44.015L24.055 43.635L22.14 35.22L21.7525 34.8975C19.3949 32.826 17.9027 29.9435 17.5725 26.8225L17.52 26.1825L17.5 25.505C17.5 22.1898 18.817 19.0104 21.1612 16.6662C23.5054 14.322 26.6848 13.005 30 13.005ZM32.925 40H27.07L27.6825 42.695L27.73 42.8625C27.7698 42.9745 27.8433 43.0714 27.9405 43.1399C28.0376 43.2084 28.1536 43.2451 28.2725 43.245L31.6225 43.2475L31.795 43.2425C31.912 43.2288 32.022 43.1795 32.1101 43.1013C32.1982 43.023 32.2601 42.9196 32.2875 42.805L32.925 40ZM30 16.755C25.1675 16.755 21.25 20.6725 21.25 25.45L21.265 26.02C21.3408 27.3232 21.7079 28.5928 22.3391 29.7354C22.9703 30.878 23.8497 31.8646 24.9125 32.6225C25.285 32.8901 25.5465 33.285 25.6475 33.7325L26.22 36.255L26.32 36.25H33.6775L33.775 36.255L34.35 33.735C34.4274 33.3918 34.5998 33.0773 34.8475 32.8275L35.0475 32.655L35.47 32.335C36.885 31.2018 37.9132 29.6572 38.4124 27.9144C38.9116 26.1717 38.8571 24.3169 38.2566 22.6064C37.6561 20.8959 36.5391 19.4142 35.06 18.366C33.581 17.3178 31.8128 16.7549 30 16.755Z" fill="white"/>
</svg>
