<svg width="60" height="60" viewBox="0 0 60 60" fill="none" xmlns="http://www.w3.org/2000/svg">
<path d="M30 5.01001C34.6875 5.01001 38.335 8.02501 39.82 12.5175C39.9758 12.9899 39.9376 13.5049 39.7137 13.9491C39.4898 14.3933 39.0987 14.7304 38.6263 14.8863C38.1538 15.0421 37.6389 15.0038 37.1946 14.78C36.7504 14.5561 36.4133 14.1649 36.2575 13.6925C35.255 10.655 32.9625 8.76001 30 8.76001C26.4825 8.76001 23.95 11.155 23.76 15.1375L23.7475 15.625V19.9975H44.375C45.8007 19.9974 47.1733 20.5386 48.2152 21.5118C49.2571 22.4851 49.8906 23.8176 49.9875 25.24L50 25.625V49.365C50.0002 50.7903 49.4593 52.1626 48.4866 53.2044C47.5139 54.2462 46.182 54.88 44.76 54.9775L44.375 54.99H15.625C14.1997 54.9902 12.8274 54.4493 11.7856 53.4766C10.7438 52.5039 10.1101 51.172 10.0125 49.75L10 49.365V25.625C9.99982 24.1997 10.5407 22.8275 11.5134 21.7856C12.4861 20.7438 13.818 20.1101 15.24 20.0125L15.625 20L19.9975 19.9975V15.6225C20 9.28001 24.275 5.01251 30 5.01251V5.01001ZM44.375 23.75H15.625C15.1719 23.75 14.7341 23.9141 14.3927 24.2119C14.0512 24.5097 13.8291 24.9211 13.7675 25.37L13.75 25.625V49.365C13.75 50.315 14.455 51.0975 15.37 51.2225L15.625 51.24H44.375C44.8281 51.24 45.2659 51.0759 45.6073 50.7781C45.9488 50.4803 46.1709 50.0689 46.2325 49.62L46.25 49.365V25.625C46.2506 25.1715 46.0868 24.7331 45.7889 24.3911C45.491 24.0491 45.0793 23.8267 44.63 23.765L44.375 23.75ZM30 33.75C30.5033 33.7316 31.0052 33.8149 31.4756 33.9948C31.946 34.1747 32.3753 34.4476 32.7379 34.7972C33.1005 35.1467 33.3889 35.5658 33.5859 36.0293C33.7828 36.4929 33.8844 36.9914 33.8844 37.495C33.8844 37.9987 33.7828 38.4971 33.5859 38.9607C33.3889 39.4242 33.1005 39.8433 32.7379 40.1929C32.3753 40.5424 31.946 40.8153 31.4756 40.9952C31.0052 41.1752 30.5033 41.2584 30 41.24C29.0232 41.2148 28.0949 40.809 27.4129 40.1092C26.7309 39.4094 26.3493 38.4709 26.3493 37.4938C26.3493 36.5166 26.7309 35.5781 27.4129 34.8783C28.0949 34.1785 29.0232 33.7727 30 33.7475V33.75Z" fill="white"/>
</svg>
