<svg width="60" height="60" viewBox="0 0 60 60" fill="none" xmlns="http://www.w3.org/2000/svg">
<path d="M30 5C32.6522 5 35.1957 6.05357 37.0711 7.92893C38.9464 9.80429 40 12.3478 40 15V20H44.375C45.1137 20 45.8451 20.1455 46.5276 20.4282C47.2101 20.7109 47.8302 21.1252 48.3525 21.6475C48.8748 22.1698 49.2891 22.7899 49.5718 23.4724C49.8545 24.1549 50 24.8863 50 25.625V49.375C50 50.1137 49.8545 50.8451 49.5718 51.5276C49.2891 52.21 48.8748 52.8301 48.3525 53.3525C47.8302 53.8748 47.2101 54.2891 46.5276 54.5718C45.8451 54.8545 45.1137 55 44.375 55H15.625C14.1332 55 12.7024 54.4073 11.6475 53.3525C10.5926 52.2976 10 50.8668 10 49.375V25.625C10 24.1331 10.5926 22.7024 11.6475 21.6475C12.7024 20.5926 14.1332 20 15.625 20H20V15C20 12.3478 21.0536 9.80429 22.9289 7.92893C24.8043 6.05357 27.3478 5 30 5ZM44.375 23.75H15.625C15.1277 23.75 14.6508 23.9475 14.2992 24.2992C13.9475 24.6508 13.75 25.1277 13.75 25.625V49.375C13.75 50.41 14.59 51.25 15.625 51.25H44.375C44.8723 51.25 45.3492 51.0524 45.7008 50.7008C46.0525 50.3492 46.25 49.8723 46.25 49.375V25.625C46.25 25.1277 46.0525 24.6508 45.7008 24.2992C45.3492 23.9475 44.8723 23.75 44.375 23.75ZM30 33.75C30.9946 33.75 31.9484 34.1451 32.6517 34.8483C33.3549 35.5516 33.75 36.5054 33.75 37.5C33.75 38.4945 33.3549 39.4484 32.6517 40.1516C31.9484 40.8549 30.9946 41.25 30 41.25C29.0054 41.25 28.0516 40.8549 27.3484 40.1516C26.6451 39.4484 26.25 38.4945 26.25 37.5C26.25 36.5054 26.6451 35.5516 27.3484 34.8483C28.0516 34.1451 29.0054 33.75 30 33.75ZM30 8.75C28.3424 8.75 26.7527 9.40848 25.5806 10.5806C24.4085 11.7527 23.75 13.3424 23.75 15V20H36.25V15C36.25 13.3424 35.5915 11.7527 34.4194 10.5806C33.2473 9.40848 31.6576 8.75 30 8.75Z" fill="white"/>
</svg>
