<svg width="60" height="60" viewBox="0 0 60 60" fill="none" xmlns="http://www.w3.org/2000/svg">
<path d="M45.625 27.5C46.0781 27.5 46.5159 27.6641 46.8573 27.9619C47.1988 28.2597 47.4209 28.6711 47.4825 29.12L47.5 29.375V30.625C47.5004 34.884 45.8903 38.9856 42.9929 42.1071C40.0954 45.2285 36.1247 47.1389 31.8775 47.455L31.875 53.125C31.8749 53.6001 31.6944 54.0574 31.3701 54.4045C31.0457 54.7516 30.6018 54.9627 30.1278 54.9951C29.6538 55.0275 29.1853 54.8787 28.8168 54.5789C28.4482 54.2791 28.2073 53.8506 28.1425 53.38L28.125 53.125V47.455C23.9788 47.1471 20.0922 45.3194 17.2105 42.3224C14.3289 39.3254 12.655 35.3701 12.51 31.215L12.5 30.625V29.375C12.5001 28.8999 12.6806 28.4427 13.0049 28.0955C13.3293 27.7484 13.7732 27.5373 14.2472 27.5049C14.7212 27.4726 15.1897 27.6213 15.5582 27.9211C15.9268 28.2209 16.1677 28.6494 16.2325 29.12L16.25 29.375V30.625C16.2497 34.0127 17.5593 37.2693 19.9048 39.7136C22.2504 42.1579 25.4502 43.6006 28.835 43.74L29.375 43.75H30.625C34.0127 43.7503 37.2692 42.4407 39.7136 40.0952C42.1579 37.7496 43.6006 34.5498 43.74 31.165L43.75 30.625V29.375C43.75 28.8777 43.9475 28.4008 44.2992 28.0492C44.6508 27.6976 45.1277 27.5 45.625 27.5ZM30 5C32.6522 5 35.1957 6.05357 37.0711 7.92893C38.9464 9.8043 40 12.3478 40 15V30C40 32.6522 38.9464 35.1957 37.0711 37.0711C35.1957 38.9464 32.6522 40 30 40C27.3478 40 24.8043 38.9464 22.9289 37.0711C21.0536 35.1957 20 32.6522 20 30V15C20 12.3478 21.0536 9.8043 22.9289 7.92893C24.8043 6.05357 27.3478 5 30 5ZM30 8.75C28.3424 8.75 26.7527 9.40848 25.5806 10.5806C24.4085 11.7527 23.75 13.3424 23.75 15V30C23.75 31.6576 24.4085 33.2473 25.5806 34.4194C26.7527 35.5915 28.3424 36.25 30 36.25C31.6576 36.25 33.2473 35.5915 34.4194 34.4194C35.5915 33.2473 36.25 31.6576 36.25 30V15C36.25 13.3424 35.5915 11.7527 34.4194 10.5806C33.2473 9.40848 31.6576 8.75 30 8.75Z" fill="white"/>
</svg>
