<svg width="60" height="60" viewBox="0 0 60 60" fill="none" xmlns="http://www.w3.org/2000/svg">
<path d="M8.2 5.54999C8.02835 5.36577 7.82135 5.21801 7.59135 5.11553C7.36135 5.01306 7.11307 4.95795 6.86131 4.95351C6.60955 4.94907 6.35948 4.99538 6.12601 5.08968C5.89254 5.18398 5.68045 5.32434 5.50241 5.50239C5.32436 5.68044 5.184 5.89252 5.0897 6.12599C4.99539 6.35946 4.94908 6.60954 4.95352 6.86129C4.95797 7.11305 5.01307 7.36133 5.11555 7.59133C5.21803 7.82133 5.36579 8.02833 5.55 8.19999L20 22.65V30C19.9998 31.8175 20.495 33.6008 21.4323 35.158C22.3696 36.7153 23.7136 37.9876 25.3198 38.8383C26.926 39.6889 28.7337 40.0857 30.5485 39.9861C32.3633 39.8864 34.1166 39.2939 35.62 38.2725L38.485 41.1375C36.2176 42.8376 33.459 43.7545 30.625 43.75H29.375L28.835 43.74C25.4502 43.6006 22.2504 42.1579 19.9049 39.7135C17.5593 37.2692 16.2497 34.0126 16.25 30.625V29.375L16.2325 29.12C16.1678 28.6494 15.9268 28.2209 15.5583 27.9211C15.1897 27.6213 14.7212 27.4725 14.2472 27.5049C13.7733 27.5373 13.3293 27.7484 13.0049 28.0955C12.6806 28.4426 12.5002 28.8999 12.5 29.375V30.625L12.51 31.215C12.655 35.3701 14.3289 39.3254 17.2105 42.3224C20.0922 45.3194 23.9788 47.1471 28.125 47.455V53.125L28.1425 53.38C28.2073 53.8506 28.4482 54.2791 28.8168 54.5789C29.1853 54.8787 29.6539 55.0274 30.1278 54.995C30.6018 54.9627 31.0458 54.7516 31.3701 54.4045C31.6944 54.0573 31.8749 53.6 31.875 53.125L31.8775 47.455C35.2685 47.2073 38.5044 45.9363 41.1575 43.81L51.7975 54.45C52.151 54.7917 52.6245 54.9809 53.1162 54.9769C53.6078 54.9728 54.0782 54.7759 54.426 54.4284C54.7738 54.0809 54.9712 53.6107 54.9757 53.1191C54.9802 52.6275 54.7914 52.1538 54.45 51.8L8.2 5.54999ZM32.89 35.5425C31.9373 36.0393 30.8727 36.2821 29.7988 36.2475C28.7249 36.2129 27.678 35.9021 26.7593 35.345C25.8406 34.7878 25.081 34.0033 24.5539 33.067C24.0267 32.1308 23.7499 31.0744 23.75 30V26.4L32.89 35.5425ZM36.25 15V28.295L39.825 31.87C39.94 31.265 40 30.64 40 30V15C40.0015 12.5748 39.1215 10.2317 37.5241 8.40701C35.9266 6.58228 33.7204 5.40027 31.3164 5.08103C28.9123 4.76179 26.4741 5.32708 24.4558 6.67166C22.4375 8.01624 20.9765 10.0485 20.345 12.39L23.75 15.795V15C23.75 13.3424 24.4085 11.7527 25.5806 10.5806C26.7527 9.40847 28.3424 8.74999 30 8.74999C31.6576 8.74999 33.2473 9.40847 34.4194 10.5806C35.5915 11.7527 36.25 13.3424 36.25 15ZM42.99 35.035L45.855 37.9C46.9411 35.6287 47.5033 33.1426 47.5 30.625V29.375L47.4825 29.12C47.4178 28.6494 47.1768 28.2209 46.8083 27.9211C46.4398 27.6213 45.9712 27.4725 45.4972 27.5049C45.0233 27.5373 44.5793 27.7484 44.255 28.0955C43.9306 28.4426 43.7502 28.8999 43.75 29.375V30.625L43.74 31.165C43.6869 32.4855 43.434 33.7903 42.99 35.035Z" fill="white"/>
</svg>
