<svg width="60" height="60" viewBox="0 0 60 60" fill="none" xmlns="http://www.w3.org/2000/svg">
<path d="M37.5 15V28.745C36.1259 29.3183 34.8371 30.0779 33.67 31.0025C33.7225 30.6775 33.75 30.3425 33.75 30V15C33.75 13.3424 33.0915 11.7527 31.9194 10.5806C30.7473 9.40848 29.1576 8.75 27.5 8.75C25.8424 8.75 24.2527 9.40848 23.0806 10.5806C21.9085 11.7527 21.25 13.3424 21.25 15V30C21.2498 30.9932 21.4863 31.9721 21.9399 32.8557C22.3936 33.7392 23.0512 34.502 23.8584 35.0807C24.6656 35.6594 25.5991 36.0373 26.5815 36.1833C27.5639 36.3293 28.5669 36.239 29.5075 35.92C28.8025 37.1994 28.2744 38.5686 27.9375 39.99C26.5888 40.0491 25.2421 39.8344 23.9785 39.359C22.715 38.8836 21.5608 38.1573 20.5855 37.2238C19.6102 36.2903 18.834 35.1691 18.3038 33.9275C17.7735 32.686 17.5001 31.35 17.5 30V15C17.5 12.3478 18.5536 9.8043 20.4289 7.92893C22.3043 6.05357 24.8478 5 27.5 5C30.1522 5 32.6957 6.05357 34.5711 7.92893C36.4464 9.8043 37.5 12.3478 37.5 15Z" fill="white"/>
<path d="M27.5 43.75C27.5 46.49 28.1775 49.0725 29.375 51.3375V53.125C29.3749 53.6001 29.1944 54.0574 28.8701 54.4045C28.5458 54.7516 28.1018 54.9627 27.6278 54.9951C27.1539 55.0275 26.6853 54.8787 26.3168 54.5789C25.9482 54.2791 25.7073 53.8506 25.6425 53.38L25.625 53.125V47.455C21.4788 47.1471 17.5922 45.3194 14.7105 42.3224C11.8289 39.3254 10.155 35.3701 10.01 31.215L10 30.625V29.375C10.0001 28.8999 10.1806 28.4427 10.5049 28.0955C10.8293 27.7484 11.2732 27.5373 11.7472 27.5049C12.2212 27.4726 12.6897 27.6213 13.0582 27.9211C13.4268 28.2209 13.6677 28.6494 13.7325 29.12L13.75 29.375V30.625C13.7497 34.0127 15.0593 37.2692 17.4048 39.7136C19.7504 42.1579 22.9502 43.6006 26.335 43.74L26.875 43.75H27.5ZM57.5 43.75C57.5 47.3967 56.0514 50.8941 53.4727 53.4727C50.8941 56.0514 47.3967 57.5 43.75 57.5C40.1033 57.5 36.6059 56.0514 34.0273 53.4727C31.4487 50.8941 30 47.3967 30 43.75C30 40.1033 31.4487 36.6059 34.0273 34.0273C36.6059 31.4487 40.1033 30 43.75 30C47.3967 30 50.8941 31.4487 53.4727 34.0273C56.0514 36.6059 57.5 40.1033 57.5 43.75ZM33.75 43.75C33.75 45.835 34.3875 47.77 35.4775 49.37L49.37 35.4775C47.8666 34.456 46.1133 33.8636 44.2985 33.7639C42.4837 33.6642 40.676 34.0611 39.0698 34.9117C37.4636 35.7624 36.1196 37.0347 35.1823 38.592C34.245 40.1492 33.7498 41.9324 33.75 43.75ZM43.75 53.75C45.5676 53.7502 47.3508 53.2551 48.9081 52.3178C50.4653 51.3805 51.7376 50.0365 52.5883 48.4303C53.439 46.824 53.8358 45.0164 53.7361 43.2015C53.6364 41.3867 53.044 39.6334 52.0225 38.13L38.13 52.0225C39.73 53.1125 41.665 53.75 43.75 53.75Z" fill="white"/>
</svg>
