<svg width="60" height="60" viewBox="0 0 60 60" fill="none" xmlns="http://www.w3.org/2000/svg">
<path d="M19.375 30C19.375 30.5745 19.2618 31.1434 19.042 31.6742C18.8221 32.205 18.4998 32.6873 18.0936 33.0936C17.6873 33.4998 17.205 33.8221 16.6742 34.042C16.1434 34.2618 15.5745 34.375 15 34.375C14.4255 34.375 13.8566 34.2618 13.3258 34.042C12.795 33.8221 12.3127 33.4998 11.9064 33.0936C11.5001 32.6873 11.1779 32.205 10.958 31.6742C10.7382 31.1434 10.625 30.5745 10.625 30C10.625 28.8397 11.0859 27.7269 11.9064 26.9064C12.7269 26.0859 13.8397 25.625 15 25.625C16.1603 25.625 17.2731 26.0859 18.0936 26.9064C18.9141 27.7269 19.375 28.8397 19.375 30ZM34.375 30C34.375 31.1603 33.9141 32.2731 33.0936 33.0936C32.2731 33.9141 31.1603 34.375 30 34.375C28.8397 34.375 27.7269 33.9141 26.9064 33.0936C26.0859 32.2731 25.625 31.1603 25.625 30C25.625 28.8397 26.0859 27.7269 26.9064 26.9064C27.7269 26.0859 28.8397 25.625 30 25.625C31.1603 25.625 32.2731 26.0859 33.0936 26.9064C33.9141 27.7269 34.375 28.8397 34.375 30ZM45 34.375C46.1603 34.375 47.2731 33.9141 48.0936 33.0936C48.9141 32.2731 49.375 31.1603 49.375 30C49.375 28.8397 48.9141 27.7269 48.0936 26.9064C47.2731 26.0859 46.1603 25.625 45 25.625C43.8397 25.625 42.7269 26.0859 41.9064 26.9064C41.0859 27.7269 40.625 28.8397 40.625 30C40.625 31.1603 41.0859 32.2731 41.9064 33.0936C42.7269 33.9141 43.8397 34.375 45 34.375Z" fill="white"/>
</svg>
