<svg width="60" height="60" viewBox="0 0 60 60" fill="none" xmlns="http://www.w3.org/2000/svg">
<path d="M30 19.375C29.4255 19.375 28.8566 19.2618 28.3258 19.042C27.795 18.8221 27.3127 18.4998 26.9064 18.0936C26.5002 17.6873 26.1779 17.205 25.958 16.6742C25.7382 16.1434 25.625 15.5745 25.625 15C25.625 14.4255 25.7382 13.8566 25.958 13.3258C26.1779 12.795 26.5002 12.3127 26.9064 11.9064C27.3127 11.5002 27.795 11.1779 28.3258 10.958C28.8566 10.7382 29.4255 10.625 30 10.625C31.1603 10.625 32.2731 11.0859 33.0936 11.9064C33.9141 12.7269 34.375 13.8397 34.375 15C34.375 16.1603 33.9141 17.2731 33.0936 18.0936C32.2731 18.9141 31.1603 19.375 30 19.375ZM30 34.375C28.8397 34.375 27.7269 33.9141 26.9064 33.0936C26.0859 32.2731 25.625 31.1603 25.625 30C25.625 28.8397 26.0859 27.7269 26.9064 26.9064C27.7269 26.0859 28.8397 25.625 30 25.625C31.1603 25.625 32.2731 26.0859 33.0936 26.9064C33.9141 27.7269 34.375 28.8397 34.375 30C34.375 31.1603 33.9141 32.2731 33.0936 33.0936C32.2731 33.9141 31.1603 34.375 30 34.375ZM25.625 45C25.625 46.1603 26.0859 47.2731 26.9064 48.0936C27.7269 48.9141 28.8397 49.375 30 49.375C31.1603 49.375 32.2731 48.9141 33.0936 48.0936C33.9141 47.2731 34.375 46.1603 34.375 45C34.375 43.8397 33.9141 42.7269 33.0936 41.9064C32.2731 41.0859 31.1603 40.625 30 40.625C28.8397 40.625 27.7269 41.0859 26.9064 41.9064C26.0859 42.7269 25.625 43.8397 25.625 45Z" fill="white"/>
</svg>
