<svg width="60" height="60" viewBox="0 0 60 60" fill="none" xmlns="http://www.w3.org/2000/svg">
<path d="M21.875 33.75C23.7034 33.7498 25.4784 34.3661 26.9133 35.4993C28.3482 36.6325 29.359 38.2164 29.7825 39.995L53.125 40C53.6 40.0002 54.0573 40.1806 54.4045 40.5049C54.7516 40.8293 54.9627 41.2733 54.9951 41.7472C55.0274 42.2212 54.8787 42.6897 54.5789 43.0583C54.2791 43.4268 53.8506 43.6678 53.38 43.7325L53.125 43.75H29.7825C29.3598 45.5295 28.3493 47.1143 26.9144 48.2484C25.4795 49.3824 23.704 49.9993 21.875 49.9993C20.046 49.9993 18.2705 49.3824 16.8356 48.2484C15.4007 47.1143 14.3902 45.5295 13.9675 43.75H6.87501C6.39995 43.7499 5.94266 43.5694 5.59553 43.2451C5.2484 42.9208 5.03732 42.4768 5.00494 42.0028C4.97256 41.5289 5.1213 41.0603 5.42109 40.6918C5.72088 40.3232 6.14938 40.0823 6.62001 40.0175L6.87501 40H13.9675C14.39 38.2204 15.4005 36.6354 16.8354 35.5012C18.2704 34.367 20.0459 33.75 21.875 33.75ZM21.875 37.5C20.9678 37.4999 20.083 37.7818 19.343 38.3068C18.6031 38.8317 18.0446 39.5737 17.745 40.43L17.6925 40.5875L17.595 40.9575C17.4516 41.6312 17.4687 42.3292 17.645 42.995L17.745 43.32L17.8075 43.4925C18.1361 44.3226 18.7107 45.0324 19.4543 45.5264C20.1979 46.0205 21.0749 46.2752 21.9675 46.2564C22.86 46.2377 23.7255 45.9463 24.4477 45.4214C25.1698 44.8965 25.7141 44.1632 26.0075 43.32L26.1075 42.995L26.0625 43.145C26.2626 42.4848 26.3037 41.7866 26.1825 41.1075L26.1075 40.765L26.0575 40.59L25.94 40.255C25.6158 39.4418 25.0552 38.7445 24.3305 38.2534C23.6058 37.7623 22.7504 37.4998 21.875 37.5ZM38.125 10C39.954 10 41.7296 10.617 43.1646 11.7512C44.5995 12.8854 45.61 14.4704 46.0325 16.25H53.125C53.6 16.2501 54.0573 16.4306 54.4045 16.7549C54.7516 17.0793 54.9627 17.5233 54.9951 17.9972C55.0274 18.4712 54.8787 18.9397 54.5789 19.3083C54.2791 19.6768 53.8506 19.9178 53.38 19.9825L53.125 20H46.0325C45.6098 21.7795 44.5993 23.3643 43.1644 24.4984C41.7294 25.6324 39.954 26.2493 38.125 26.2493C36.296 26.2493 34.5205 25.6324 33.0856 24.4984C31.6507 23.3643 30.6402 21.7795 30.2175 20H6.87501C6.39995 19.9999 5.94266 19.8194 5.59553 19.4951C5.2484 19.1708 5.03732 18.7268 5.00494 18.2528C4.97256 17.7788 5.1213 17.3103 5.42109 16.9418C5.72088 16.5732 6.14938 16.3323 6.62001 16.2675L6.87501 16.25L30.2175 16.245C30.641 14.4663 31.6518 12.8824 33.0867 11.7492C34.5216 10.616 36.2966 9.99977 38.125 10ZM38.125 13.75C37.2175 13.7501 36.3324 14.0324 35.5925 14.5578C34.8525 15.0832 34.2942 15.8257 33.995 16.6825L33.9425 16.8375L33.8475 17.2075C33.7034 17.881 33.7196 18.579 33.895 19.245L33.995 19.57L34.0575 19.7425C34.3858 20.5727 34.9603 21.2826 35.7037 21.7769C36.4472 22.2711 37.324 22.5261 38.2166 22.5076C39.1092 22.4891 39.9747 22.198 40.697 21.6733C41.4193 21.1487 41.9639 20.4156 42.2575 19.5725L42.3575 19.245L42.3125 19.395C42.5126 18.7348 42.5537 18.0366 42.4325 17.3575L42.3575 17.015L42.3075 16.84L42.19 16.505C41.8658 15.6918 41.3052 14.9945 40.5805 14.5034C39.8558 14.0122 39.0004 13.7498 38.125 13.75Z" fill="white"/>
</svg>
