<svg width="60" height="60" viewBox="0 0 60 60" fill="none" xmlns="http://www.w3.org/2000/svg">
<path d="M14.375 5C13.8777 5 13.4008 5.19754 13.0492 5.54917C12.6975 5.9008 12.5 6.37772 12.5 6.875V35.625C12.5 37.1168 13.0926 38.5476 14.1475 39.6025C15.2024 40.6574 16.6332 41.25 18.125 41.25H23.75V48.75C23.75 50.4076 24.4085 51.9973 25.5806 53.1694C26.7527 54.3415 28.3424 55 30 55C31.6576 55 33.2473 54.3415 34.4194 53.1694C35.5915 51.9973 36.25 50.4076 36.25 48.75V41.25H41.875C42.6137 41.25 43.3451 41.1045 44.0276 40.8218C44.7101 40.5391 45.3301 40.1248 45.8525 39.6025C46.3748 39.0801 46.7891 38.46 47.0718 37.7776C47.3545 37.0951 47.5 36.3637 47.5 35.625V6.875C47.5 6.37772 47.3025 5.9008 46.9508 5.54917C46.5992 5.19754 46.1223 5 45.625 5H14.375ZM16.25 27.5V8.75H31.25V13.13C31.25 13.6273 31.4475 14.1042 31.7992 14.4558C32.1508 14.8075 32.6277 15.005 33.125 15.005C33.6223 15.005 34.0992 14.8075 34.4508 14.4558C34.8025 14.1042 35 13.6273 35 13.13V8.75H37.5V15.6275C37.5 16.1248 37.6975 16.6017 38.0492 16.9533C38.4008 17.305 38.8777 17.5025 39.375 17.5025C39.8723 17.5025 40.3492 17.305 40.7008 16.9533C41.0525 16.6017 41.25 16.1248 41.25 15.6275V8.75H43.75V27.5H16.25ZM16.25 35.625V31.25H43.75V35.625C43.75 36.1223 43.5525 36.5992 43.2008 36.9508C42.8492 37.3024 42.3723 37.5 41.875 37.5H34.375C33.8777 37.5 33.4008 37.6975 33.0492 38.0492C32.6975 38.4008 32.5 38.8777 32.5 39.375V48.75C32.5 49.413 32.2366 50.0489 31.7678 50.5178C31.2989 50.9866 30.663 51.25 30 51.25C29.337 51.25 28.7011 50.9866 28.2322 50.5178C27.7634 50.0489 27.5 49.413 27.5 48.75V39.375C27.5 38.8777 27.3025 38.4008 26.9508 38.0492C26.5992 37.6975 26.1223 37.5 25.625 37.5H18.125C17.6277 37.5 17.1508 37.3024 16.7992 36.9508C16.4475 36.5992 16.25 36.1223 16.25 35.625Z" fill="white"/>
</svg>
