<svg width="60" height="60" viewBox="0 0 60 60" fill="none" xmlns="http://www.w3.org/2000/svg">
<path d="M44.385 35C45.1236 34.9997 45.855 35.1449 46.5374 35.4273C47.2198 35.7097 47.84 36.1238 48.3623 36.6459C48.8847 37.1681 49.2991 37.788 49.5818 38.4703C49.8645 39.1526 50.01 39.884 50.01 40.6225V42.06C50.01 44.295 49.21 46.46 47.755 48.155C43.83 52.74 37.8625 55.0025 30 55.0025C22.135 55.0025 16.17 52.74 12.255 48.1525C10.806 46.4553 10.0099 44.2967 10.01 42.065V40.6225C10.0097 39.884 10.1549 39.1526 10.4373 38.4701C10.7197 37.7877 11.1338 37.1676 11.6559 36.6452C12.178 36.1228 12.798 35.7085 13.4803 35.4258C14.1626 35.143 14.8939 34.9975 15.6325 34.9975H44.385V35ZM44.385 38.75H15.6325C15.3864 38.7497 15.1426 38.7979 14.9152 38.8918C14.6877 38.9858 14.481 39.1237 14.3068 39.2976C14.1327 39.4715 13.9945 39.678 13.9003 39.9054C13.806 40.1327 13.7575 40.3764 13.7575 40.6225V42.065C13.7575 43.405 14.2375 44.7 15.1075 45.7175C18.24 49.3875 23.155 51.2525 30 51.2525C36.845 51.2525 41.765 49.3875 44.905 45.7175C45.7775 44.6986 46.2572 43.4015 46.2575 42.06V40.6225C46.2578 40.3764 46.2096 40.1327 46.1157 39.9052C46.0217 39.6777 45.8839 39.471 45.7099 39.2969C45.536 39.1227 45.3295 38.9846 45.1022 38.8903C44.8748 38.796 44.6311 38.7475 44.385 38.7475V38.75ZM30 5.01001C33.3152 5.01001 36.4946 6.32697 38.8388 8.67118C41.183 11.0154 42.5 14.1948 42.5 17.51C42.5 20.8252 41.183 24.0047 38.8388 26.3489C36.4946 28.6931 33.3152 30.01 30 30.01C26.6848 30.01 23.5054 28.6931 21.1612 26.3489C18.817 24.0047 17.5 20.8252 17.5 17.51C17.5 14.1948 18.817 11.0154 21.1612 8.67118C23.5054 6.32697 26.6848 5.01001 30 5.01001ZM30 8.76001C28.8509 8.76001 27.7131 8.98634 26.6515 9.42607C25.5899 9.8658 24.6253 10.5103 23.8128 11.3228C23.0003 12.1353 22.3558 13.0999 21.916 14.1615C21.4763 15.2231 21.25 16.3609 21.25 17.51C21.25 18.6591 21.4763 19.7969 21.916 20.8585C22.3558 21.9201 23.0003 22.8847 23.8128 23.6972C24.6253 24.5097 25.5899 25.1542 26.6515 25.594C27.7131 26.0337 28.8509 26.26 30 26.26C32.3206 26.26 34.5462 25.3382 36.1872 23.6972C37.8281 22.0563 38.75 19.8307 38.75 17.51C38.75 15.1894 37.8281 12.9638 36.1872 11.3228C34.5462 9.68188 32.3206 8.76001 30 8.76001Z" fill="white"/>
</svg>
