<svg width="60" height="60" viewBox="0 0 60 60" fill="none" xmlns="http://www.w3.org/2000/svg">
<path d="M26.875 35C28.3668 35 29.7976 35.5926 30.8525 36.6475C31.9074 37.7024 32.5 39.1332 32.5 40.625V44.38L32.48 44.65C31.705 49.9675 26.93 52.5225 18.9175 52.5225C10.935 52.5225 6.0825 49.9975 5.035 44.7425L5 44.375V40.625C5 39.1332 5.59263 37.7024 6.64752 36.6475C7.70242 35.5926 9.13316 35 10.625 35H26.875ZM26.875 38.75H10.625C10.1277 38.75 9.6508 38.9475 9.29917 39.2992C8.94754 39.6508 8.75 40.1277 8.75 40.625V44.175C9.45 47.175 12.625 48.7725 18.9175 48.7725C25.2075 48.7725 28.2425 47.195 28.75 44.2325V40.625C28.75 40.1277 28.5524 39.6508 28.2008 39.2992C27.8492 38.9475 27.3723 38.75 26.875 38.75ZM18.75 15C19.8991 15 21.0369 15.2263 22.0985 15.6661C23.1601 16.1058 24.1247 16.7503 24.9372 17.5628C25.7497 18.3753 26.3942 19.3399 26.8339 20.4015C27.2737 21.4631 27.5 22.6009 27.5 23.75C27.5 24.8991 27.2737 26.0369 26.8339 27.0985C26.3942 28.1601 25.7497 29.1247 24.9372 29.9372C24.1247 30.7497 23.1601 31.3942 22.0985 31.8339C21.0369 32.2737 19.8991 32.5 18.75 32.5C16.4294 32.5 14.2038 31.5781 12.5628 29.9372C10.9219 28.2962 10 26.0706 10 23.75C10 21.4294 10.9219 19.2038 12.5628 17.5628C14.2038 15.9219 16.4294 15 18.75 15ZM49.375 5C50.8668 5 52.2976 5.59263 53.3525 6.64752C54.4073 7.70242 55 9.13316 55 10.625V19.375C55 20.1137 54.8545 20.8451 54.5718 21.5276C54.2891 22.21 53.8748 22.8301 53.3525 23.3525C52.8301 23.8748 52.21 24.2891 51.5276 24.5718C50.8451 24.8545 50.1137 25 49.375 25H45.7375L40.3225 30.3525C39.8842 30.786 39.3275 31.0802 38.7224 31.198C38.1174 31.3159 37.4909 31.2521 36.922 31.0148C36.3531 30.7775 35.867 30.3773 35.525 29.8644C35.183 29.3515 35.0004 28.7489 35 28.1325V24.965C33.625 24.8113 32.3548 24.1561 31.4324 23.1249C30.51 22.0936 30 20.7586 30 19.375V10.625C30 9.13316 30.5926 7.70242 31.6475 6.64752C32.7024 5.59263 34.1331 5 35.625 5H49.375ZM18.75 18.75C17.4239 18.75 16.1521 19.2768 15.2145 20.2145C14.2768 21.1521 13.75 22.4239 13.75 23.75C13.75 25.0761 14.2768 26.3479 15.2145 27.2855C16.1521 28.2232 17.4239 28.75 18.75 28.75C20.0761 28.75 21.3478 28.2232 22.2855 27.2855C23.2232 26.3479 23.75 25.0761 23.75 23.75C23.75 22.4239 23.2232 21.1521 22.2855 20.2145C21.3478 19.2768 20.0761 18.75 18.75 18.75ZM49.375 8.75H35.625C35.1277 8.75 34.6508 8.94754 34.2992 9.29917C33.9475 9.65081 33.75 10.1277 33.75 10.625V19.375C33.75 20.41 34.59 21.25 35.625 21.25H38.7475V26.635L44.2 21.25H49.3775C49.8748 21.25 50.3517 21.0525 50.7033 20.7008C51.0549 20.3492 51.2525 19.8723 51.2525 19.375V10.625C51.2525 10.1277 51.0549 9.65081 50.7033 9.29917C50.3517 8.94754 49.8723 8.75 49.375 8.75Z" fill="white"/>
</svg>
