<svg width="60" height="60" viewBox="0 0 60 60" fill="none" xmlns="http://www.w3.org/2000/svg">
<path d="M20.6375 22.5C23.0525 22.5 25.0125 24.4575 25.0125 26.875V50.625C25.0125 51.7853 24.5516 52.8981 23.7311 53.7186C22.9106 54.539 21.7978 55 20.6375 55H9.375C8.21468 55 7.10188 54.539 6.28141 53.7186C5.46094 52.8981 5 51.7853 5 50.625V26.875C5 24.4575 6.96 22.5 9.375 22.5H20.6375ZM20.6375 26.25H9.375C9.20924 26.25 9.05027 26.3158 8.93306 26.433C8.81585 26.5503 8.75 26.7092 8.75 26.875V50.625C8.75 50.97 9.03 51.25 9.375 51.25H20.6375C20.8033 51.25 20.9622 51.1841 21.0794 51.0669C21.1966 50.9497 21.2625 50.7907 21.2625 50.625V26.875C21.2625 26.7092 21.1966 26.5503 21.0794 26.433C20.9622 26.3158 20.8033 26.25 20.6375 26.25ZM15.625 45C16.1001 45.0001 16.5573 45.1806 16.9045 45.5049C17.2516 45.8292 17.4627 46.2732 17.4951 46.7472C17.5274 47.2211 17.3787 47.6897 17.0789 48.0582C16.7791 48.4267 16.3506 48.6677 15.88 48.7325L15.625 48.75H14.375C13.8999 48.7498 13.4426 48.5694 13.0955 48.2451C12.7484 47.9207 12.5373 47.4767 12.5049 47.0028C12.4726 46.5288 12.6213 46.0603 12.9211 45.6917C13.2209 45.3232 13.6494 45.0822 14.12 45.0175L14.375 45H15.625ZM49.375 5C50.8003 4.99982 52.1725 5.54074 53.2144 6.51342C54.2562 7.48611 54.8899 8.81803 54.9875 10.24L55 10.625V33.125C55.0002 34.5503 54.4592 35.9225 53.4866 36.9644C52.5139 38.0062 51.182 38.6399 49.76 38.7375L49.375 38.75H40.01V43.75H43.125C43.6 43.7501 44.0573 43.9306 44.4045 44.2549C44.7516 44.5792 44.9627 45.0232 44.995 45.4972C45.0274 45.9711 44.8787 46.4397 44.5789 46.8082C44.2791 47.1767 43.8506 47.4177 43.38 47.4825L43.125 47.5H27.5V43.75H36.26V38.75H27.5V35H49.375C49.8281 35 50.2658 34.8359 50.6073 34.5381C50.9488 34.2403 51.1709 33.8289 51.2325 33.38L51.25 33.125V10.625C51.25 10.1277 51.0524 9.6508 50.7008 9.29917C50.3492 8.94754 49.8723 8.75 49.375 8.75H15.625C15.1719 8.75002 14.7341 8.91411 14.3927 9.21192C14.0512 9.50973 13.8291 9.92111 13.7675 10.37L13.75 10.625V20H10V10.625C9.99982 9.19968 10.5407 7.82745 11.5134 6.78562C12.4861 5.74379 13.818 5.11006 15.24 5.0125L15.625 5H49.375Z" fill="white"/>
</svg>
