<svg width="60" height="60" viewBox="0 0 60 60" fill="none" xmlns="http://www.w3.org/2000/svg">
<path d="M39.375 5C40.8668 5 42.2976 5.59263 43.3525 6.64752C44.4074 7.70242 45 9.13316 45 10.625V49.375C45 50.8668 44.4074 52.2976 43.3525 53.3525C42.2976 54.4073 40.8668 55 39.375 55H20.625C19.1332 55 17.7024 54.4073 16.6475 53.3525C15.5926 52.2976 15 50.8668 15 49.375V10.625C15 9.13316 15.5926 7.70242 16.6475 6.64752C17.7024 5.59263 19.1332 5 20.625 5H39.375ZM39.375 8.75H20.625C20.1277 8.75 19.6508 8.94754 19.2992 9.29917C18.9475 9.6508 18.75 10.1277 18.75 10.625V49.375C18.75 50.41 19.59 51.25 20.625 51.25H39.375C39.8723 51.25 40.3492 51.0524 40.7008 50.7008C41.0525 50.3492 41.25 49.8723 41.25 49.375V10.625C41.25 10.1277 41.0525 9.6508 40.7008 9.29917C40.3492 8.94754 39.8723 8.75 39.375 8.75ZM33.1225 43.75C33.6198 43.7493 34.097 43.9462 34.4491 44.2974C34.8012 44.6486 34.9993 45.1252 35 45.6225C35.0007 46.1198 34.8038 46.5969 34.4526 46.949C34.1014 47.3011 33.6248 47.4993 33.1275 47.5L26.8775 47.51C26.3802 47.5106 25.903 47.3137 25.5509 46.9626C25.1988 46.6114 25.0007 46.1348 25 45.6375C24.9993 45.1402 25.1962 44.663 25.5474 44.3109C25.8986 43.9588 26.3752 43.7606 26.8725 43.76L33.1225 43.75Z" fill="white"/>
</svg>
