<svg width="60" height="60" viewBox="0 0 60 60" fill="none" xmlns="http://www.w3.org/2000/svg">
<path d="M20.635 20.0075C23.0525 20.0075 25.01 21.9675 25.01 24.3825V48.1325C25.01 49.2928 24.5491 50.4056 23.7286 51.2261C22.9081 52.0465 21.7953 52.5075 20.635 52.5075H9.375C8.21468 52.5075 7.10188 52.0465 6.28141 51.2261C5.46094 50.4056 5 49.2928 5 48.1325V24.3825C5 21.9675 6.96 20.0075 9.375 20.0075H20.635ZM20.635 23.7575H9.375C9.20924 23.7575 9.05027 23.8233 8.93306 23.9406C8.81585 24.0578 8.75 24.2167 8.75 24.3825V48.1325C8.75 48.4775 9.03 48.7575 9.375 48.7575H20.635C20.8008 48.7575 20.9597 48.6916 21.0769 48.5744C21.1942 48.4572 21.26 48.2982 21.26 48.1325V24.3825C21.26 24.2167 21.1942 24.0578 21.0769 23.9406C20.9597 23.8233 20.8008 23.7575 20.635 23.7575ZM15.63 42.5C16.1051 42.5001 16.5624 42.6806 16.9095 43.0049C17.2566 43.3292 17.4677 43.7732 17.5001 44.2472C17.5324 44.7211 17.3837 45.1897 17.0839 45.5582C16.7841 45.9268 16.3556 46.1677 15.885 46.2325L15.63 46.25H14.38C13.9049 46.2498 13.4476 46.0694 13.1005 45.7451C12.7534 45.4207 12.5423 44.9767 12.5099 44.5028C12.4776 44.0288 12.6263 43.5603 12.9261 43.1917C13.2259 42.8232 13.6544 42.5822 14.125 42.5175L14.38 42.5H15.63ZM53.1225 41.25C53.5976 41.2501 54.0549 41.4306 54.402 41.7549C54.7491 42.0792 54.9602 42.5232 54.9926 42.9972C55.025 43.4711 54.8762 43.9397 54.5764 44.3082C54.2766 44.6768 53.8481 44.9177 53.3775 44.9825L53.125 45H27.5V41.25H53.1225ZM45.625 12.5C48.04 12.5 50 14.46 50 16.875V35.625C50 36.7853 49.5391 37.8981 48.7186 38.7186C47.8981 39.5391 46.7853 40 45.625 40H27.5V36.25H45.625C45.7908 36.25 45.9497 36.1841 46.067 36.0669C46.1842 35.9497 46.25 35.7908 46.25 35.625V16.875C46.25 16.7092 46.1842 16.5503 46.067 16.4331C45.9497 16.3158 45.7908 16.25 45.625 16.25H14.375C14.2092 16.25 14.0503 16.3158 13.9331 16.4331C13.8159 16.5503 13.75 16.7092 13.75 16.875L13.7475 17.5H10V16.875C10 14.46 11.96 12.5 14.375 12.5H45.625Z" fill="white"/>
</svg>
