<svg width="60" height="60" viewBox="0 0 60 60" fill="none" xmlns="http://www.w3.org/2000/svg">
<path d="M50.625 5C53.04 5 55 6.9575 55 9.375V16.98C55.0002 18.2363 54.6561 19.4687 54.0051 20.5433C53.3541 21.6178 52.4211 22.4934 51.3075 23.075L35.6025 31.275C38.1186 32.5365 40.1354 34.6104 41.3262 37.1607C42.517 39.7111 42.8122 42.5887 42.164 45.3278C41.5158 48.0668 39.9622 50.5069 37.7546 52.253C35.547 53.9992 32.8147 54.9491 30 54.9491C27.1853 54.9491 24.453 53.9992 22.2454 52.253C20.0378 50.5069 18.4842 48.0668 17.836 45.3278C17.1878 42.5887 17.483 39.7111 18.6738 37.1607C19.8646 34.6104 21.8814 32.5365 24.3975 31.275L8.6925 23.075C7.57886 22.4934 6.64588 21.6178 5.9949 20.5433C5.34392 19.4687 4.99982 18.2363 5 16.98V9.375C5 6.9575 6.96 5 9.375 5H50.625ZM30 33.7C27.6793 33.7 25.4538 34.6219 23.8128 36.2628C22.1719 37.9037 21.25 40.1293 21.25 42.45C21.25 44.7706 22.1719 46.9962 23.8128 48.6372C25.4538 50.2781 27.6793 51.2 30 51.2C32.3206 51.2 34.5462 50.2781 36.1872 48.6372C37.8281 46.9962 38.75 44.7706 38.75 42.45C38.75 40.1293 37.8281 37.9037 36.1872 36.2628C34.5462 34.6219 32.3206 33.7 30 33.7ZM38.75 8.75H21.25V25.405L29.71 29.8225C29.7995 29.8694 29.899 29.8938 30 29.8938C30.101 29.8938 30.2005 29.8694 30.29 29.8225L38.75 25.4V8.75ZM17.5 8.75H9.375C9.20924 8.75 9.05027 8.81585 8.93306 8.93306C8.81585 9.05027 8.75 9.20924 8.75 9.375V16.9825C8.75 18.1475 9.3975 19.215 10.4275 19.7525L17.5 23.4425V8.75ZM50.625 8.75H42.5V23.445L49.5725 19.75C50.0784 19.4856 50.5023 19.0876 50.798 18.5992C51.0938 18.1109 51.2501 17.5509 51.25 16.98V9.375C51.25 9.20924 51.1841 9.05027 51.0669 8.93306C50.9497 8.81585 50.7907 8.75 50.625 8.75Z" fill="white"/>
</svg>
