<svg width="60" height="60" viewBox="0 0 60 60" fill="none" xmlns="http://www.w3.org/2000/svg">
<path d="M30.03 5.625C31.865 5.645 33.6925 5.8575 35.485 6.2575C35.8663 6.34262 36.2116 6.54476 36.4724 6.83565C36.7333 7.12655 36.8968 7.49167 36.94 7.88L37.365 11.6975C37.425 12.2357 37.6105 12.7523 37.9066 13.2058C38.2027 13.6592 38.601 14.0368 39.0697 14.3082C39.5383 14.5796 40.0641 14.7372 40.6047 14.7684C41.1454 14.7995 41.6858 14.7033 42.1825 14.4875L45.685 12.95C46.0406 12.7934 46.4361 12.7511 46.8168 12.829C47.1974 12.907 47.5445 13.1012 47.81 13.385C50.3398 16.0877 52.2237 19.329 53.32 22.865C53.4349 23.2366 53.4315 23.6347 53.3101 24.0043C53.1887 24.3738 52.9554 24.6965 52.6425 24.9275L49.5375 27.2175C49.1008 27.5382 48.7458 27.9572 48.5011 28.4406C48.2564 28.924 48.1289 29.4582 48.1289 30C48.1289 30.5418 48.2564 31.076 48.5011 31.5594C48.7458 32.0427 49.1008 32.4618 49.5375 32.7825L52.645 35.07C52.9588 35.3009 53.193 35.6238 53.3148 35.9939C53.4367 36.364 53.4402 36.7628 53.325 37.135C52.2283 40.6708 50.3445 43.912 47.815 46.615C47.5502 46.8981 47.2041 47.0922 46.8245 47.1706C46.4448 47.2489 46.0502 47.2077 45.695 47.0525L42.1775 45.51C41.6815 45.2925 41.1412 45.1948 40.6004 45.2249C40.0597 45.255 39.5336 45.412 39.0647 45.6832C38.5959 45.9544 38.1975 46.3321 37.9018 46.7858C37.606 47.2396 37.4213 47.7566 37.3625 48.295L36.94 52.11C36.8974 52.4941 36.7371 52.8557 36.4812 53.1452C36.2252 53.4348 35.886 53.6381 35.51 53.7275C31.8889 54.589 28.1161 54.589 24.495 53.7275C24.119 53.6381 23.7798 53.4348 23.5238 53.1452C23.2678 52.8557 23.1076 52.4941 23.065 52.11L22.645 48.3C22.5838 47.7629 22.3974 47.2477 22.1008 46.7958C21.8042 46.3439 21.4058 45.9679 20.9374 45.698C20.4691 45.4281 19.944 45.2718 19.4043 45.2418C18.8646 45.2117 18.3254 45.3087 17.83 45.525L14.315 47.065C13.9594 47.2207 13.5643 47.2623 13.1841 47.1839C12.804 47.1056 12.4575 46.9111 12.1925 46.6275C9.66178 43.9216 7.77784 40.6768 6.6825 37.1375C6.56725 36.7653 6.5708 36.3665 6.69266 35.9964C6.81453 35.6263 7.04865 35.3034 7.3625 35.0725L10.47 32.7825C10.9071 32.4621 11.2626 32.0432 11.5076 31.5598C11.7527 31.0763 11.8803 30.542 11.8803 30C11.8803 29.458 11.7527 28.9237 11.5076 28.4402C11.2626 27.9568 10.9071 27.5379 10.47 27.2175L7.3625 24.9325C7.0491 24.7013 6.81547 24.3782 6.69406 24.0082C6.57265 23.6381 6.56948 23.2394 6.685 22.8675C7.78131 19.3316 9.66522 16.0903 12.195 13.3875C12.4605 13.1037 12.8075 12.9095 13.1882 12.8315C13.5689 12.7536 13.9644 12.7959 14.32 12.9525L17.82 14.49C18.3175 14.7057 18.8587 14.8017 19.4001 14.7702C19.9415 14.7388 20.4679 14.5808 20.9372 14.309C21.4064 14.0372 21.8054 13.6591 22.102 13.2051C22.3986 12.7511 22.5846 12.2339 22.645 11.695L23.07 7.88C23.1129 7.49089 23.2765 7.12496 23.5379 6.83354C23.7993 6.54211 24.1453 6.33981 24.5275 6.255C26.32 5.8575 28.1525 5.6475 30.03 5.625ZM30.03 9.375C28.896 9.38831 27.7645 9.48609 26.645 9.6675L26.3725 12.11C26.2477 13.2339 25.8604 14.3127 25.242 15.2595C24.6236 16.2062 23.7913 16.9943 22.8123 17.5602C21.8332 18.1261 20.7349 18.454 19.6059 18.5173C18.4768 18.5807 17.3487 18.3778 16.3125 17.925L14.0675 16.94C12.6375 18.6753 11.4993 20.6317 10.6975 22.7325L12.6925 24.2C13.603 24.8692 14.3434 25.7432 14.8536 26.7514C15.3639 27.7596 15.6297 28.8738 15.6297 30.0037C15.6297 31.1337 15.3639 32.2479 14.8536 33.2561C14.3434 34.2643 13.603 35.1383 12.6925 35.8075L10.695 37.2775C11.495 39.3825 12.635 41.3425 14.065 43.0825L16.3275 42.09C17.3612 41.6387 18.4865 41.4363 19.6127 41.4993C20.7389 41.5623 21.8346 41.8888 22.8115 42.4525C23.7885 43.0163 24.6195 43.8016 25.2375 44.7451C25.8556 45.6887 26.2435 46.7641 26.37 47.885L26.645 50.345C28.8675 50.72 31.14 50.72 33.3625 50.345L33.6375 47.885C33.7619 46.7627 34.1485 45.6854 34.766 44.74C35.3835 43.7947 36.2146 43.0078 37.1923 42.4428C38.1699 41.8778 39.2667 41.5506 40.3941 41.4876C41.5215 41.4245 42.648 41.6275 43.6825 42.08L45.945 43.07C47.3742 41.3337 48.5116 39.3765 49.3125 37.275L47.3175 35.805C46.4069 35.1358 45.6666 34.2618 45.1564 33.2536C44.6461 32.2454 44.3802 31.1312 44.3802 30.0012C44.3802 28.8713 44.6461 27.7571 45.1564 26.7489C45.6666 25.7407 46.4069 24.8667 47.3175 24.1975L49.3075 22.73C48.5057 20.6292 47.3675 18.6728 45.9375 16.9375L43.6975 17.92C42.6619 18.3734 41.5341 18.5769 40.4054 18.514C39.2766 18.4512 38.1784 18.1238 37.1995 17.5583C36.2206 16.9928 35.3884 16.2051 34.77 15.2586C34.1517 14.3122 33.7646 13.2336 33.64 12.11L33.365 9.67C32.263 9.48983 31.149 9.39206 30.0325 9.3775L30.03 9.375ZM30 20.625C32.4864 20.625 34.871 21.6127 36.6291 23.3709C38.3873 25.129 39.375 27.5136 39.375 30C39.375 32.4864 38.3873 34.871 36.6291 36.6291C34.871 38.3873 32.4864 39.375 30 39.375C27.5136 39.375 25.129 38.3873 23.3709 36.6291C21.6127 34.871 20.625 32.4864 20.625 30C20.625 27.5136 21.6127 25.129 23.3709 23.3709C25.129 21.6127 27.5136 20.625 30 20.625ZM30 24.375C28.5081 24.375 27.0774 24.9676 26.0225 26.0225C24.9676 27.0774 24.375 28.5082 24.375 30C24.375 31.4918 24.9676 32.9226 26.0225 33.9775C27.0774 35.0324 28.5081 35.625 30 35.625C31.4918 35.625 32.9226 35.0324 33.9775 33.9775C35.0324 32.9226 35.625 31.4918 35.625 30C35.625 28.5082 35.0324 27.0774 33.9775 26.0225C32.9226 24.9676 31.4918 24.375 30 24.375Z" fill="white"/>
</svg>
