<svg width="60" height="60" viewBox="0 0 60 60" fill="none" xmlns="http://www.w3.org/2000/svg">
<path d="M7.5 14.375C7.5 13.8777 7.69754 13.4008 8.04917 13.0492C8.4008 12.6975 8.87772 12.5 9.375 12.5C16.0325 12.5 22.52 10.1425 28.875 5.375C29.1995 5.13158 29.5943 5 30 5C30.4057 5 30.8004 5.13158 31.125 5.375C37.48 10.1425 43.9675 12.5 50.625 12.5C51.1223 12.5 51.5992 12.6975 51.9508 13.0492C52.3024 13.4008 52.5 13.8777 52.5 14.375V27.5C52.5 28.345 52.465 29.175 52.4 29.99C51.2555 29.269 50.025 28.6945 48.7375 28.28C48.745 28.0225 48.75 27.7625 48.75 27.5V16.195C42.3075 15.815 36.05 13.47 30 9.195C23.95 13.47 17.6925 15.815 11.25 16.195V27.5C11.25 37.8725 17.08 45.5525 29.0625 50.7125C29.7176 52.0908 30.5634 53.37 31.575 54.5125L30.6875 54.87C30.2457 55.0441 29.7543 55.0441 29.3125 54.87C14.895 49.19 7.5 40 7.5 27.5V14.375ZM57.5 43.75C57.5 47.3967 56.0513 50.8941 53.4727 53.4727C50.8941 56.0513 47.3967 57.5 43.75 57.5C40.1033 57.5 36.6059 56.0513 34.0273 53.4727C31.4486 50.8941 30 47.3967 30 43.75C30 40.1033 31.4486 36.6059 34.0273 34.0273C36.6059 31.4487 40.1033 30 43.75 30C47.3967 30 50.8941 31.4487 53.4727 34.0273C56.0513 36.6059 57.5 40.1033 57.5 43.75ZM52.135 37.865C52.0189 37.7486 51.8809 37.6562 51.7291 37.5932C51.5772 37.5302 51.4144 37.4978 51.25 37.4978C51.0856 37.4978 50.9228 37.5302 50.7709 37.5932C50.619 37.6562 50.4811 37.7486 50.365 37.865L41.25 46.9825L37.135 42.865C36.9003 42.6303 36.5819 42.4984 36.25 42.4984C35.918 42.4984 35.5997 42.6303 35.365 42.865C35.1303 43.0997 34.9984 43.4181 34.9984 43.75C34.9984 44.0819 35.1303 44.4003 35.365 44.635L40.365 49.635C40.4811 49.7514 40.619 49.8438 40.7709 49.9068C40.9228 49.9698 41.0856 50.0022 41.25 50.0022C41.4144 50.0022 41.5772 49.9698 41.7291 49.9068C41.8809 49.8438 42.0189 49.7514 42.135 49.635L52.135 39.635C52.2514 39.5189 52.3437 39.3809 52.4068 39.2291C52.4698 39.0772 52.5022 38.9144 52.5022 38.75C52.5022 38.5856 52.4698 38.4228 52.4068 38.2709C52.3437 38.1191 52.2514 37.9811 52.135 37.865Z" fill="white"/>
</svg>
