<svg width="60" height="60" viewBox="0 0 60 60" fill="none" xmlns="http://www.w3.org/2000/svg">
<path d="M34.9875 27.5C34.9875 28.4937 34.6914 29.4648 34.137 30.2895C33.5827 31.1141 32.7951 31.7549 31.875 32.13V38.125C31.875 38.6223 31.6774 39.0992 31.3258 39.4508C30.9742 39.8025 30.4973 40 30 40C29.5027 40 29.0258 39.8025 28.6742 39.4508C28.3225 39.0992 28.125 38.6223 28.125 38.125V32.14C27.2825 31.8019 26.548 31.2407 26.0003 30.5168C25.4525 29.7929 25.1122 28.9336 25.0158 28.0309C24.9194 27.1283 25.0705 26.2164 25.453 25.3931C25.8355 24.5699 26.4349 23.8663 27.1869 23.3578C27.9389 22.8493 28.8152 22.5552 29.7217 22.5069C30.6282 22.4587 31.5307 22.6581 32.3324 23.0838C33.1342 23.5096 33.8049 24.1456 34.2727 24.9236C34.7404 25.7016 34.9875 26.5922 34.9875 27.5Z" fill="white"/>
<path d="M9.375 12.5C8.87772 12.5 8.40081 12.6975 8.04917 13.0492C7.69754 13.4008 7.5 13.8777 7.5 14.375V27.5C7.5 40.0025 14.895 49.19 29.3125 54.87C29.7543 55.0441 30.2457 55.0441 30.6875 54.87C45.105 49.19 52.5 40 52.5 27.5V14.375C52.5 13.8777 52.3025 13.4008 51.9508 13.0492C51.5992 12.6975 51.1223 12.5 50.625 12.5C43.9675 12.5 37.48 10.1425 31.125 5.375C30.8004 5.13158 30.4057 5 30 5C29.5943 5 29.1996 5.13158 28.875 5.375C22.52 10.1425 16.0325 12.5 9.375 12.5ZM11.25 27.5V16.195C17.6925 15.815 23.95 13.47 30 9.195C36.05 13.47 42.3075 15.815 48.75 16.195V27.5C48.75 38.14 42.6175 45.9475 30 51.105C17.3825 45.9475 11.25 38.14 11.25 27.5Z" fill="white"/>
</svg>
