<svg width="60" height="60" viewBox="0 0 60 60" fill="none" xmlns="http://www.w3.org/2000/svg">
<path d="M31.125 5.375C37.48 10.1425 43.9675 12.5 50.625 12.5C51.1223 12.5 51.5992 12.6975 51.9508 13.0492C52.3025 13.4008 52.5 13.8777 52.5 14.375V27.5C52.5 40.0025 45.105 49.19 30.6875 54.87C30.2457 55.0441 29.7543 55.0441 29.3125 54.87C14.895 49.19 7.5 40 7.5 27.5V14.375C7.5 13.8777 7.69754 13.4008 8.04917 13.0492C8.40081 12.6975 8.87772 12.5 9.375 12.5C16.0325 12.5 22.52 10.1425 28.875 5.375C29.1996 5.13158 29.5943 5 30 5C30.4057 5 30.8004 5.13158 31.125 5.375ZM30 9.195C23.95 13.47 17.6925 15.815 11.25 16.195V27.5C11.25 38.14 17.3825 45.9475 30 51.105C42.6175 45.9475 48.75 38.14 48.75 27.5V16.195C42.3075 15.815 36.05 13.47 30 9.195ZM30 40C30.4973 40 30.9742 40.1975 31.3258 40.5492C31.6775 40.9008 31.875 41.3777 31.875 41.875C31.875 42.3723 31.6775 42.8492 31.3258 43.2008C30.9742 43.5525 30.4973 43.75 30 43.75C29.5027 43.75 29.0258 43.5525 28.6742 43.2008C28.3225 42.8492 28.125 42.3723 28.125 41.875C28.125 41.3777 28.3225 40.9008 28.6742 40.5492C29.0258 40.1975 29.5027 40 30 40ZM30 17.51C30.4531 17.51 30.8909 17.6741 31.2323 17.9719C31.5738 18.2697 31.7959 18.6811 31.8575 19.13L31.875 19.385V35.63C31.8749 36.1051 31.6944 36.5624 31.3701 36.9095C31.0457 37.2566 30.6018 37.4677 30.1278 37.5001C29.6538 37.5325 29.1853 37.3837 28.8168 37.0839C28.4482 36.7841 28.2073 36.3556 28.1425 35.885L28.125 35.63V19.385C28.125 18.8877 28.3225 18.4108 28.6742 18.0592C29.0258 17.7075 29.5027 17.51 30 17.51Z" fill="white"/>
</svg>
