<svg width="60" height="60" viewBox="0 0 60 60" fill="none" xmlns="http://www.w3.org/2000/svg">
<path d="M7.5 14.375C7.5 13.8777 7.69754 13.4008 8.04917 13.0492C8.40081 12.6975 8.87772 12.5 9.375 12.5C16.0325 12.5 22.52 10.1425 28.875 5.375C29.1996 5.13158 29.5943 5 30 5C30.4057 5 30.8004 5.13158 31.125 5.375C37.48 10.1425 43.9675 12.5 50.625 12.5C51.1223 12.5 51.5992 12.6975 51.9508 13.0492C52.3025 13.4008 52.5 13.8777 52.5 14.375V27.5C52.5 40.0025 45.105 49.19 30.6875 54.87C30.2457 55.0441 29.7543 55.0441 29.3125 54.87C14.895 49.19 7.5 40 7.5 27.5V14.375ZM11.25 16.195V27.5C11.25 38.14 17.3825 45.9475 30 51.105C42.6175 45.9475 48.75 38.14 48.75 27.5V16.195C42.3075 15.815 36.05 13.47 30 9.195C23.95 13.47 17.6925 15.815 11.25 16.195Z" fill="white"/>
</svg>
