<svg width="60" height="60" viewBox="0 0 60 60" fill="none" xmlns="http://www.w3.org/2000/svg">
<path d="M31.125 5.375C37.48 10.1425 43.9675 12.5 50.625 12.5C51.1223 12.5 51.5992 12.6975 51.9508 13.0492C52.3025 13.4008 52.5 13.8777 52.5 14.375V27.5C52.5 40.0025 45.105 49.19 30.6875 54.87C30.2457 55.0441 29.7543 55.0441 29.3125 54.87C14.895 49.19 7.5 40 7.5 27.5V14.375C7.5 13.8777 7.69754 13.4008 8.04917 13.0492C8.40081 12.6975 8.87772 12.5 9.375 12.5C16.0325 12.5 22.52 10.1425 28.875 5.375C29.1996 5.13158 29.5943 5 30 5C30.4057 5 30.8004 5.13158 31.125 5.375ZM30 9.195C23.95 13.47 17.6925 15.815 11.25 16.195V27.5C11.25 38.14 17.3825 45.9475 30 51.105C42.6175 45.9475 48.75 38.14 48.75 27.5V16.195C42.3075 15.815 36.05 13.47 30 9.195ZM23.2 20.555L30.01 27.3625L36.8225 20.555C37.1398 20.2381 37.5602 20.0455 38.0074 20.012C38.4546 19.9785 38.899 20.1064 39.26 20.3725L39.47 20.555C39.7869 20.8723 39.9795 21.2927 40.013 21.7399C40.0465 22.1871 39.9186 22.6315 39.6525 22.9925L39.47 23.2025L32.66 30.01L39.47 36.8225C39.6438 36.9965 39.7817 37.203 39.8757 37.4303C39.9697 37.6576 40.0181 37.9012 40.0179 38.1471C40.0178 38.3931 39.9693 38.6366 39.875 38.8638C39.7808 39.091 39.6428 39.2974 39.4688 39.4713C39.2947 39.6451 39.0882 39.783 38.8609 39.877C38.6336 39.971 38.3901 40.0193 38.1441 40.0192C37.8982 40.0191 37.6546 39.9705 37.4274 39.8763C37.2002 39.7821 36.9938 39.644 36.82 39.47L30.01 32.66L23.2025 39.47C22.8852 39.7869 22.4648 39.9796 22.0176 40.013C21.5704 40.0465 21.126 39.9186 20.765 39.6525L20.555 39.47C20.2381 39.1527 20.0454 38.7323 20.012 38.2851C19.9785 37.8379 20.1064 37.3935 20.3725 37.0325L20.555 36.8225L27.3625 30.01L20.555 23.2025C20.2299 22.8465 20.0544 22.3789 20.065 21.897C20.0756 21.415 20.2714 20.9556 20.6119 20.6142C20.9523 20.2728 21.4111 20.0757 21.8931 20.0637C22.375 20.0518 22.8431 20.2259 23.2 20.55V20.555Z" fill="white"/>
</svg>
