<svg width="625" height="284" viewBox="0 0 625 284" fill="none" xmlns="http://www.w3.org/2000/svg">
<path fill-rule="evenodd" clip-rule="evenodd" d="M190 95C190 116.216 183.045 135.807 171.291 151.619C170.203 147.822 169.095 144.065 167.967 140.348C166.108 134.225 164.359 127.884 162.719 121.324C161.188 115.857 161.243 112.14 162.883 110.172C164.632 108.204 167.912 107.22 172.723 107.22V98.2H127.131V109.024C128.552 108.915 130.028 108.86 131.559 108.86C133.199 108.751 134.948 108.641 136.807 108.532C137.026 110.5 137.518 112.96 138.283 115.912C139.048 118.755 140.087 122.199 141.399 126.244L155.442 168.296C139.019 181.854 117.961 190 95 190C42.5329 190 0 147.467 0 95C0 42.5329 42.5329 0 95 0C147.467 0 190 42.5329 190 95ZM155.442 168.296L170.755 214.148H181.743L202.079 149.368C203.063 145.979 203.938 142.699 204.703 139.528C205.578 136.357 206.343 133.077 206.999 129.688C207.983 133.077 208.912 136.576 209.787 140.184C210.771 143.792 211.864 147.509 213.067 151.336L234.387 214.148H245.703C250.404 199.716 255.051 185.284 259.643 170.852C264.235 156.311 268.827 141.715 273.419 127.064C275.059 121.925 276.754 117.989 278.503 115.256C280.252 112.413 282.166 110.445 284.243 109.352C286.43 108.149 288.944 107.439 291.787 107.22V98.2H256.035V109.024C257.566 108.915 259.588 108.86 262.103 108.86C264.727 108.751 266.968 108.641 268.827 108.532C267.406 110.281 266.148 112.468 265.055 115.092C264.071 117.607 263.251 120.067 262.595 122.472C261.83 125.205 261.064 127.993 260.299 130.836C259.534 133.569 258.659 136.521 257.675 139.692C256.8 142.753 255.816 146.143 254.723 149.86C253.63 153.577 252.372 157.732 250.951 162.324C249.748 166.26 248.6 170.087 247.507 173.804C246.523 177.521 245.539 181.075 244.555 184.464H244.227C243.134 180.091 241.986 175.772 240.783 171.508C239.69 167.244 238.487 163.035 237.175 158.88C235.754 154.507 234.223 149.751 232.583 144.612C230.943 139.364 229.248 134.061 227.499 128.704C225.75 123.237 224.055 117.935 222.415 112.796C220.775 107.548 219.244 102.628 217.823 98.036H206.343C204.922 102.847 203.227 108.313 201.259 114.436C199.4 120.449 197.378 126.845 195.191 133.624C193.114 140.293 190.982 147.127 188.795 154.124C188.467 155.327 187.92 157.24 187.155 159.864C186.499 162.379 185.679 165.167 184.695 168.228C183.82 171.289 183 174.241 182.235 177.084C181.47 179.927 180.868 182.168 180.431 183.808H180.103C178.9 178.56 177.752 174.187 176.659 170.688C175.675 167.08 174.582 163.199 173.379 159.044C172.692 156.552 171.996 154.077 171.291 151.619C166.698 157.798 161.372 163.4 155.442 168.296ZM359.401 215.624C349.014 215.624 340.158 213.875 332.833 210.376C325.508 206.877 319.549 202.231 314.957 196.436C310.474 190.532 307.194 184.027 305.117 176.92C303.04 169.813 302.001 162.707 302.001 155.6C302.001 148.712 303.149 141.769 305.445 134.772C307.741 127.665 311.24 121.16 315.941 115.256C320.752 109.352 326.765 104.596 333.981 100.988C341.197 97.38 349.67 95.576 359.401 95.576C369.35 95.576 377.933 97.38 385.149 100.988C392.474 104.596 398.433 109.407 403.025 115.42C407.726 121.324 411.17 127.775 413.357 134.772C415.653 141.769 416.801 148.712 416.801 155.6C416.801 162.379 415.653 169.267 413.357 176.264C411.061 183.261 407.508 189.767 402.697 195.78C397.996 201.684 392.037 206.495 384.821 210.212C377.605 213.82 369.132 215.624 359.401 215.624ZM360.713 205.456C366.836 205.456 371.974 204.035 376.129 201.192C380.393 198.349 383.837 194.632 386.461 190.04C389.085 185.448 390.998 180.419 392.201 174.952C393.513 169.376 394.169 163.909 394.169 158.552C394.169 151.227 393.404 144.393 391.873 138.052C390.342 131.601 388.046 125.971 384.985 121.16C382.033 116.349 378.261 112.577 373.669 109.844C369.077 107.001 363.774 105.635 357.761 105.744C351.748 105.853 346.609 107.384 342.345 110.336C338.19 113.179 334.746 116.951 332.013 121.652C329.389 126.244 327.476 131.328 326.273 136.904C325.07 142.48 324.469 147.947 324.469 153.304C324.469 158.771 325.125 164.511 326.437 170.524C327.749 176.537 329.826 182.223 332.669 187.58C335.512 192.937 339.229 197.256 343.821 200.536C348.522 203.816 354.153 205.456 360.713 205.456ZM438.056 213V203.98C441.117 203.871 443.468 203.379 445.108 202.504C446.748 201.52 447.896 199.88 448.552 197.584C449.208 195.179 449.536 191.899 449.536 187.744V122.308C449.536 119.575 449.59 116.951 449.7 114.436C449.918 111.921 450.082 109.953 450.192 108.532C448.333 108.641 446.201 108.751 443.796 108.86C441.39 108.86 439.477 108.915 438.056 109.024V98.2H481.68V107.22C478.728 107.329 476.377 107.876 474.628 108.86C472.988 109.735 471.84 111.32 471.184 113.616C470.528 115.912 470.2 119.192 470.2 123.456V188.728C470.2 191.68 470.145 194.413 470.036 196.928C469.926 199.333 469.762 201.247 469.544 202.668L494.472 202.504C501.032 202.395 506.116 200.153 509.724 195.78C513.332 191.407 515.136 184.628 515.136 175.444H524.32L523.336 213H438.056ZM543.791 213V203.98C546.852 203.871 549.203 203.379 550.843 202.504C552.483 201.52 553.631 199.88 554.287 197.584C554.943 195.179 555.271 191.899 555.271 187.744V122.308C555.271 119.575 555.326 116.951 555.435 114.436C555.654 111.921 555.818 109.953 555.927 108.532C554.068 108.641 551.936 108.751 549.531 108.86C547.126 108.86 545.212 108.915 543.791 109.024V98.2H623.823L624.643 129.032H615.623C615.623 122.8 614.584 118.153 612.507 115.092C610.43 111.921 607.806 109.789 604.635 108.696C601.464 107.603 598.239 107.111 594.959 107.22L586.923 107.384C584.08 107.493 581.839 108.04 580.199 109.024C578.668 110.008 577.575 111.703 576.919 114.108C576.263 116.404 575.935 119.575 575.935 123.62V152.156H596.599L595.779 138.052H606.603V176.1H597.747C597.747 171.399 597.036 168.009 595.615 165.932C594.194 163.855 592.171 162.597 589.547 162.16C587.032 161.613 584.026 161.449 580.527 161.668L575.935 161.832V188.564C575.935 191.516 575.88 194.249 575.771 196.764C575.662 199.279 575.498 201.247 575.279 202.668C576.7 202.559 578.34 202.504 580.199 202.504C582.167 202.395 584.08 202.34 585.939 202.34C587.907 202.231 589.438 202.176 590.531 202.176V213H543.791ZM157.28 284H173.003V280.016H161.929V271.812H171.616V267.848H161.929V259.977H172.378V255.992H157.28V284ZM207.465 284H212.562V255.992H208.07V273.668C208.07 274.605 208.077 275.4 208.09 276.051C208.103 276.702 208.122 277.21 208.148 277.574H208.07C207.888 277.236 207.706 276.923 207.523 276.637C207.354 276.337 207.152 275.992 206.918 275.602L194.203 255.992H188.793V284H193.285V266.09C193.285 265.165 193.279 264.384 193.266 263.746C193.253 263.095 193.233 262.587 193.207 262.223H193.305L193.734 262.965C193.891 263.212 194.099 263.544 194.359 263.961L207.465 284ZM240.013 259.938H247.845V255.992H227.552V259.938H235.364V284H240.013V259.938ZM263.185 284H278.908V280.016H267.834V271.812H277.521V267.848H267.834V259.977H278.283V255.992H263.185V284ZM310.518 284H315.85L310.635 275.23C310.049 274.241 309.515 273.473 309.034 272.926C308.552 272.366 308.005 271.923 307.393 271.598V271.52C309.151 270.947 310.538 269.964 311.553 268.57C312.569 267.164 313.077 265.562 313.077 263.766C313.077 261.305 312.243 259.397 310.577 258.043C308.923 256.676 306.631 255.992 303.702 255.992H294.698V284H299.346V273.023H301.885C302.692 273.023 303.376 273.212 303.936 273.59C304.509 273.967 305.199 274.846 306.006 276.227L310.518 284ZM299.346 269.215V259.781H303.194C304.834 259.781 306.078 260.178 306.924 260.973C307.771 261.754 308.194 262.828 308.194 264.195C308.194 265.693 307.719 266.904 306.768 267.828C305.817 268.753 304.567 269.215 303.018 269.215H299.346ZM338.534 259.938H346.366V255.992H326.073V259.938H333.886V284H338.534V259.938ZM366.453 255.992L356.023 284H361.004L363.328 277.359H374.617L377.039 284H382.039L371.688 255.992H366.453ZM373.348 273.414H364.578L368.406 262.301C368.51 262.001 368.595 261.734 368.66 261.5C368.725 261.266 368.81 260.992 368.914 260.68H369.012C369.103 261.018 369.181 261.305 369.246 261.539C369.324 261.76 369.415 262.014 369.52 262.301L373.348 273.414ZM396.813 284H401.462V255.992H396.813V284ZM437.857 284H442.955V255.992H438.463V273.668C438.463 274.605 438.469 275.4 438.482 276.051C438.495 276.702 438.515 277.21 438.541 277.574H438.463C438.28 277.236 438.098 276.923 437.916 276.637C437.746 276.337 437.545 275.992 437.31 275.602L424.595 255.992H419.185V284H423.677V266.09C423.677 265.165 423.671 264.384 423.658 263.746C423.645 263.095 423.625 262.587 423.599 262.223H423.697L424.127 262.965C424.283 263.212 424.491 263.544 424.752 263.961L437.857 284ZM486.205 284H490.815V255.992H484.506L477.104 274.137C476.998 274.415 476.893 274.688 476.791 274.957C476.692 275.215 476.594 275.469 476.498 275.719C476.303 276.227 476.095 276.793 475.873 277.418H475.756C475.587 276.871 475.418 276.37 475.248 275.914C475.079 275.445 474.858 274.872 474.584 274.195L467.299 255.992H460.698V284H465.053V266.715C465.053 265.751 465.047 264.859 465.034 264.039C465.021 263.219 464.995 262.424 464.955 261.656H465.073L465.483 262.887C465.561 263.088 465.64 263.286 465.719 263.481C465.757 263.576 465.796 263.671 465.834 263.766L474.077 284H477.28L485.502 263.59C485.62 263.264 485.73 262.958 485.834 262.672C485.939 262.372 486.056 262.034 486.186 261.656H486.284C486.258 262.529 486.238 263.31 486.225 264C486.212 264.677 486.205 265.387 486.205 266.129V284ZM508.538 284H524.261V280.016H513.187V271.812H522.874V267.848H513.187V259.977H523.636V255.992H508.538V284ZM558.723 284H563.82V255.992H559.328V273.668C559.328 274.605 559.335 275.4 559.348 276.051C559.361 276.702 559.38 277.21 559.406 277.574H559.328C559.146 277.236 558.964 276.923 558.781 276.637C558.612 276.337 558.41 275.992 558.176 275.602L545.461 255.992H540.051V284H544.543V266.09C544.543 265.165 544.536 264.384 544.523 263.746C544.51 263.095 544.491 262.587 544.465 262.223H544.562L544.992 262.965C545.148 263.212 545.357 263.544 545.617 263.961L558.723 284ZM591.27 259.938H599.102V255.992H578.809V259.938H586.622V284H591.27V259.938Z" fill="white"/>
</svg>
